<svg id="_1-spider" height="512" viewBox="0 0 64 64" width="512" xmlns="http://www.w3.org/2000/svg" data-name="1-spider"><g fill="#525252"><path d="m29 48a1 1 0 0 1 -.71-.29l-2-2a1 1 0 0 1 -.18-1.16l2-4a1 1 0 0 1 1.78.9l-1.67 3.35 1.49 1.49a1 1 0 0 1 0 1.42 1 1 0 0 1 -.71.29z"/><path d="m27 31a.84.84 0 0 1 -.27 0l-7-2a1 1 0 0 1 -.72-.82l-2-14a1 1 0 0 1 .2-.75l10-13a1 1 0 0 1 1.58 1.22l-9.74 12.63 1.85 12.94 6.37 1.78a1 1 0 0 1 -.27 2z"/><path d="m31.05 37.5h-.21l-8.57-2a1.06 1.06 0 0 1 -.34-.16l-9.52-7a1 1 0 0 1 -.4-.94l1.9-16a1 1 0 0 1 1.09-.89 1 1 0 0 1 .82 1.12l-1.82 15.37 8.9 6.54 8.38 2a1 1 0 0 1 .73 1.2 1 1 0 0 1 -.96.76z"/><path d="m18 60a1 1 0 0 1 -1-.71l-3-10a1 1 0 0 1 0-.43l1-7a1 1 0 0 1 .54-.75l12-6a1 1 0 1 1 .9 1.78l-11.52 5.77-.92 6.26 3 9.79a1 1 0 0 1 -1 1.29z"/><path d="m27 64a1 1 0 0 1 -.87-.51l-5-9a1.12 1.12 0 0 1 -.12-.35l-1-7a1 1 0 0 1 .15-.68l7-11a1 1 0 1 1 1.68 1.08l-6.84 10.68 1 6.46 4.91 8.83a1 1 0 0 1 -.38 1.36 1 1 0 0 1 -.53.13z"/><path d="m35 48a1 1 0 0 0 .71-.29l2-2a1 1 0 0 0 .18-1.16l-2-4a1 1 0 0 0 -1.78.9l1.67 3.35-1.49 1.49a1 1 0 0 0 0 1.42 1 1 0 0 0 .71.29z"/><path d="m37 31a.84.84 0 0 0 .27 0l7-2a1 1 0 0 0 .72-.82l2-14a1 1 0 0 0 -.2-.75l-10-13a1 1 0 0 0 -1.58 1.22l9.79 12.63-1.9 12.94-6.37 1.78a1 1 0 0 0 .27 2z"/><path d="m33 37.5h.21l8.57-2a1.06 1.06 0 0 0 .34-.16l9.52-7a1 1 0 0 0 .4-.94l-1.9-16a1 1 0 0 0 -1.14-.89 1 1 0 0 0 -.82 1.12l1.82 15.37-8.9 6.54-8.38 2a1 1 0 0 0 -.73 1.2 1 1 0 0 0 1.01.76z"/><path d="m46 60a1 1 0 0 0 1-.71l3-10a1 1 0 0 0 0-.43l-1-7a1 1 0 0 0 -.54-.75l-12-6a1 1 0 1 0 -.9 1.78l11.53 5.77.9 6.26-2.99 9.79a1 1 0 0 0 1 1.29z"/><path d="m37 64a1 1 0 0 0 .87-.51l5-9a1.12 1.12 0 0 0 .12-.35l1-7a1 1 0 0 0 -.15-.68l-7-11a1 1 0 0 0 -1.68 1.08l6.84 10.68-1 6.46-4.91 8.83a1 1 0 0 0 .38 1.36 1 1 0 0 0 .53.13z"/></g><path d="m41 21c0-4 0-10-9-10s-9 6-9 10c0 6 3 14 3 14s-1 9 6 9 6-9 6-9 3-8 3-14z" fill="#57413a"/><path d="m23.34 16.65a13.26 13.26 0 0 0 -.29 2.06 72.07 72.07 0 0 1 8.95-.71 72.07 72.07 0 0 1 9 .71 13.26 13.26 0 0 0 -.29-2.06 71.28 71.28 0 0 0 -8.71-.65 71.28 71.28 0 0 0 -8.66.65z" fill="#f6f0e5"/><path d="m23 21.75c0 .65.08 1.32.16 2 2.58-.3 6.84-.75 8.84-.75s6.26.45 8.82.75c.08-.68.13-1.35.16-2-2.61-.3-6.91-.75-9-.75s-6.35.45-8.98.75z" fill="#f6f0e5"/><path d="m23.88 27.74c.15.68.31 1.33.47 2 2.3-.34 5.79-.74 7.65-.74s5.35.4 7.65.69c.16-.62.32-1.27.47-2a81.06 81.06 0 0 0 -8.12-.69 81.06 81.06 0 0 0 -8.12.74z" fill="#f6f0e5"/><path d="m26 35s-1 9 6 9 6-9 6-9z" fill="#ccc7be"/><path d="m29 39h2v2h-2z" fill="#4e3c36"/><path d="m33 39h2v2h-2z" fill="#4e3c36"/><path d="m31 37h2v2h-2z" fill="#4e3c36"/></svg>