<svg id="Capa_1" enable-background="new 0 0 513.803 513.803" height="512" viewBox="0 0 513.803 513.803" width="512" xmlns="http://www.w3.org/2000/svg"><g><g><g><g><path d="m403.55 193.979h-17.352c-4.204 0-7.612-3.408-7.612-7.611 0-4.204 3.408-7.612 7.612-7.612h17.352c4.204 0 7.611 3.408 7.611 7.612 0 4.203-3.408 7.611-7.611 7.611z" fill="#158f5e"/></g><g><path d="m369.697 367.224h-38.684c-23.513 0-42.575-19.061-42.575-42.575s19.062-42.575 42.575-42.575h38.684c18.744 0 33.992-15.249 33.992-33.992v-71.688c0-23.513 19.062-42.575 42.575-42.575s42.575 19.061 42.575 42.575v71.688c0 65.696-53.446 119.142-119.142 119.142z" fill="#158f5e"/></g><g><path d="m506.191 235.609h-17.352c-4.204 0-7.612-3.408-7.612-7.611 0-4.204 3.408-7.611 7.612-7.611h17.352c4.204 0 7.612 3.408 7.612 7.611s-3.408 7.611-7.612 7.611z" fill="#158f5e"/></g><g><path d="m473.354 151.157c-1.948 0-3.896-.743-5.382-2.229-2.973-2.972-2.973-7.792 0-10.764l11.394-11.394c2.972-2.972 7.792-2.972 10.764 0 2.973 2.972 2.973 7.792 0 10.764l-11.394 11.394c-1.486 1.486-3.434 2.229-5.382 2.229z" fill="#158f5e"/></g><g><path d="m446.264 141.432c-4.204 0-7.612-3.408-7.612-7.611v-15.868c0-4.204 3.408-7.611 7.612-7.611s7.611 3.408 7.611 7.611v15.868c.001 4.203-3.407 7.611-7.611 7.611z" fill="#158f5e"/></g><g><path d="m488.839 176.392v71.69c0 65.692-53.443 119.145-119.145 119.145h-37.509c65.692 0 119.135-53.453 119.135-119.145v-71.69c0-16.786-9.702-31.288-23.819-38.22 5.663-2.791 12.026-4.354 18.765-4.354 23.514 0 42.573 19.06 42.573 42.574z" fill="#0f7a4f"/></g><path d="m453.876 176.395c0-4.204-3.408-7.611-7.611-7.611s-7.612 3.408-7.612 7.611v43.991h-9.741c-4.204 0-7.612 3.408-7.612 7.611 0 4.204 3.408 7.611 7.612 7.611h9.741v12.474c0 34.249-25.102 62.733-57.871 68.053v-8.838c0-4.204-3.408-7.612-7.611-7.612-4.204 0-7.612 3.408-7.612 7.612v9.741h-36.206c-4.204 0-7.611 3.408-7.611 7.612s3.408 7.611 7.611 7.611h40.344c25.089 0 47.635-11.046 63.07-28.515l6.281 6.281c1.487 1.487 3.435 2.229 5.383 2.229 1.947 0 3.896-.743 5.382-2.229 2.972-2.973 2.973-7.792 0-10.765l-7.857-7.858c-.024-.024-.051-.044-.076-.068 7.609-12.65 11.995-27.448 11.995-43.254v-71.687z" fill="#0d7045"/></g><g><g><path d="m24.964 142.433h-17.353c-4.204 0-7.611-3.408-7.611-7.611 0-4.204 3.408-7.612 7.611-7.612h17.352c4.204 0 7.611 3.408 7.611 7.612.001 4.203-3.407 7.611-7.61 7.611z" fill="#1ca56f"/></g><g><path d="m40.451 57.983c-1.948 0-3.896-.743-5.382-2.229l-11.396-11.396c-2.973-2.972-2.973-7.792 0-10.764 2.972-2.972 7.792-2.972 10.764 0l11.396 11.396c2.973 2.972 2.973 7.792 0 10.764-1.486 1.486-3.434 2.229-5.382 2.229z" fill="#1ca56f"/></g><g><path d="m144.106 274.049h38.684c23.513 0 42.575-19.061 42.575-42.575s-19.062-42.575-42.575-42.575h-38.684c-18.744 0-33.992-15.249-33.992-33.992v-71.688c0-23.513-19.062-42.575-42.575-42.575s-42.575 19.062-42.575 42.575v71.688c0 65.695 53.446 119.142 119.142 119.142z" fill="#5bbd93"/></g><g><path d="m127.606 100.803h-17.352c-4.204 0-7.611-3.408-7.611-7.611s3.408-7.611 7.611-7.611h17.352c4.204 0 7.611 3.408 7.611 7.611s-3.408 7.611-7.611 7.611z" fill="#1ca56f"/><g><path d="m67.539 48.256c-4.204 0-7.611-3.408-7.611-7.611v-15.868c0-4.204 3.408-7.611 7.611-7.611s7.611 3.408 7.611 7.611v15.868c0 4.203-3.408 7.611-7.611 7.611z" fill="#1ca56f"/></g></g><g><path d="m144.109 188.895h-31.207c-18.745 0-33.988-15.243-33.988-33.988v-71.69c0-18.004-11.184-33.399-26.975-39.62 4.831-1.908 10.088-2.953 15.598-2.953 23.514 0 42.574 19.059 42.574 42.574v71.69c0 18.744 15.254 33.987 33.998 33.987z" fill="#2db181"/></g><path d="m184.82 223.863h-36.575v-9.741c0-4.204-3.408-7.611-7.612-7.611s-7.611 3.408-7.611 7.611v8.838c-32.769-5.319-57.871-33.804-57.871-68.053v-12.474h9.741c4.204 0 7.611-3.408 7.611-7.611 0-4.204-3.408-7.612-7.611-7.612h-9.742v-43.99c0-4.204-3.408-7.611-7.611-7.611s-7.611 3.408-7.611 7.611v71.687c0 15.805 4.386 30.601 11.993 43.25l-7.93 7.93c-2.973 2.972-2.973 7.792 0 10.764 1.486 1.486 3.434 2.229 5.382 2.229s3.896-.743 5.382-2.229l6.281-6.281c15.435 17.469 37.981 28.515 63.07 28.515h40.714c4.204 0 7.611-3.408 7.611-7.611s-3.408-7.611-7.611-7.611z" fill="#1ca56f"/><path d="m92.503 134.823c0 4.202-3.41 7.611-7.611 7.611h-5.978v-15.223h5.978c4.201.001 7.611 3.411 7.611 7.612z" fill="#158f5e"/></g></g><g><g><path d="m184.453 317.266h-17.352c-4.204 0-7.611-3.408-7.611-7.611s3.408-7.612 7.611-7.612h17.352c4.204 0 7.611 3.408 7.611 7.612s-3.407 7.611-7.611 7.611z" fill="#158f5e"/></g><g><path d="m184.453 148.805h-17.352c-4.204 0-7.611-3.408-7.611-7.611s3.408-7.611 7.611-7.611h17.352c4.204 0 7.611 3.408 7.611 7.611s-3.407 7.611-7.611 7.611z" fill="#158f5e"/></g><g><path d="m184.453 375.659h-17.352c-4.204 0-7.611-3.408-7.611-7.611s3.408-7.612 7.611-7.612h17.352c4.204 0 7.611 3.408 7.611 7.612s-3.407 7.611-7.611 7.611z" fill="#158f5e"/></g><g><path d="m184.453 415.689h-17.352c-4.204 0-7.611-3.408-7.611-7.612s3.408-7.611 7.611-7.611h17.352c4.204 0 7.611 3.408 7.611 7.611 0 4.204-3.407 7.612-7.611 7.612z" fill="#158f5e"/></g><g><path d="m200.554 59.383c-1.948 0-3.896-.743-5.382-2.229l-11.4-11.399c-2.973-2.972-2.973-7.791 0-10.764 2.972-2.972 7.792-2.973 10.764 0l11.4 11.399c2.973 2.972 2.973 7.791 0 10.764-1.486 1.486-3.434 2.229-5.382 2.229z" fill="#158f5e"/></g><path d="m319.201 512.901h-124.599c-5.605 0-10.149-4.544-10.149-10.149v-405.258c0-40.012 32.436-72.448 72.448-72.448 40.012 0 72.448 32.436 72.448 72.448v405.259c.001 5.605-4.543 10.148-10.148 10.148z" fill="#2db181"/><g><path d="m262.349 32.884c-4.204 0-7.611-3.408-7.611-7.611v-16.76c0-4.204 3.408-7.611 7.611-7.611 4.204 0 7.612 3.408 7.612 7.611v16.759c-.001 4.204-3.408 7.612-7.612 7.612z" fill="#158f5e"/></g><g><path d="m313.098 59.383c-1.948 0-3.896-.743-5.382-2.229-2.973-2.972-2.973-7.792 0-10.764l11.399-11.399c2.972-2.972 7.792-2.972 10.764 0 2.973 2.972 2.973 7.792 0 10.764l-11.399 11.399c-1.486 1.486-3.434 2.229-5.382 2.229z" fill="#158f5e"/></g><g><path d="m346.702 231.985h-17.352c-4.204 0-7.612-3.408-7.612-7.611 0-4.204 3.408-7.611 7.612-7.611h17.352c4.204 0 7.612 3.408 7.612 7.611s-3.408 7.611-7.612 7.611z" fill="#158f5e"/></g><g><path d="m346.702 413.5h-17.352c-4.204 0-7.612-3.408-7.612-7.612s3.408-7.611 7.612-7.611h17.352c4.204 0 7.612 3.408 7.612 7.611s-3.408 7.612-7.612 7.612z" fill="#158f5e"/></g><g><path d="m346.702 447.154h-17.352c-4.204 0-7.612-3.408-7.612-7.612s3.408-7.611 7.612-7.611h17.352c4.204 0 7.612 3.408 7.612 7.611 0 4.204-3.408 7.612-7.612 7.612z" fill="#158f5e"/></g><path d="m329.353 97.496v405.256c0 5.605-4.544 10.149-10.149 10.149h-25.676v-415.405c0-20.013-8.109-38.118-21.221-51.23-9.063-9.063-20.5-15.73-33.318-18.988 5.724-1.461 11.732-2.233 17.912-2.233 20.013 0 38.118 8.109 51.23 21.221 13.113 13.112 21.222 31.217 21.222 51.23z" fill="#1ca56f"/></g><path d="m244.922 100.895h-6.918v-57.461c0-8.687 5.886-16.015 13.873-18.217-9.783.67-19.029 3.278-27.351 7.449-1.137 3.39-1.746 7.003-1.746 10.768v147.43h-8.966c-4.204 0-7.611 3.408-7.611 7.611 0 4.204 3.408 7.611 7.611 7.611h8.966v169.002h-8.966c-4.204 0-7.611 3.408-7.611 7.611 0 4.204 3.408 7.612 7.611 7.612h8.966v122.589h15.223v-396.782h6.918c4.204 0 7.611-3.408 7.611-7.611s-3.406-7.612-7.61-7.612z" fill="#158f5e"/><path d="m299.344 363.562h-8.323v-186.184h9.737c4.204 0 7.611-3.408 7.611-7.611 0-4.204-3.408-7.611-7.611-7.611h-9.737v-118.722c0-3.765-.609-7.378-1.746-10.768-8.322-4.171-17.567-6.779-27.351-7.449 7.987 2.202 13.873 9.53 13.873 18.217v210.762h-10.409c-4.204 0-7.612 3.408-7.612 7.612s3.408 7.611 7.612 7.611h10.409v26.488h-10.409c-4.204 0-7.612 3.408-7.612 7.611s3.408 7.612 7.612 7.612h10.409v201.771h15.223v-134.116h8.323c4.204 0 7.612-3.408 7.612-7.612.001-4.203-3.407-7.611-7.611-7.611z" fill="#158f5e"/><g fill="#0f7a4f"><path d="m289.276 32.667c1.137 3.39 1.746 7.003 1.746 10.768v35.125c-2.882-10.707-8.159-20.419-15.223-28.548v-6.576c0-8.687-5.886-16.015-13.873-18.217 9.782.668 19.028 3.277 27.35 7.448z"/><path d="m306.955 371.175c0 4.202-3.41 7.612-7.611 7.612h-5.815v-15.223h5.815c4.201 0 7.611 3.41 7.611 7.611z"/><path d="m300.754 177.376h-7.226v-15.223h7.226c4.212 0 7.611 3.41 7.611 7.611 0 4.202-3.4 7.612-7.611 7.612z"/></g></g></svg>