<?xml version="1.0" encoding="UTF-8" standalone="no"?>
<svg
   height="512"
   viewBox="0 0 64 64"
   width="512"
   version="1.1"
   id="svg35"
   sodipodi:docname="027-bug.svg"
   inkscape:version="1.1 (c68e22c387, 2021-05-23)"
   xmlns:inkscape="http://www.inkscape.org/namespaces/inkscape"
   xmlns:sodipodi="http://sodipodi.sourceforge.net/DTD/sodipodi-0.dtd"
   xmlns="http://www.w3.org/2000/svg"
   xmlns:svg="http://www.w3.org/2000/svg">
  <defs
     id="defs39" />
  <sodipodi:namedview
     id="namedview37"
     pagecolor="#505050"
     bordercolor="#eeeeee"
     borderopacity="1"
     inkscape:pageshadow="0"
     inkscape:pageopacity="0"
     inkscape:pagecheckerboard="0"
     showgrid="false"
     inkscape:zoom="1.015625"
     inkscape:cx="255.50769"
     inkscape:cy="255.50769"
     inkscape:window-width="1366"
     inkscape:window-height="705"
     inkscape:window-x="-8"
     inkscape:window-y="-8"
     inkscape:window-maximized="1"
     inkscape:current-layer="svg35" />
  <g
     fill="#d15850"
     id="g16"
     style="fill:#28170b">
    <path
       d="m 14,40 a 1.19,1.19 0 0 1 -0.32,0 l -3,-1 a 1.002447,1.002447 0 1 1 0.64,-1.9 l 2.36,0.79 5.56,-6.49 A 1,1 0 0 1 20,31 h 6.84 L 17.4,19.84 12.63,17.93 a 1.0008996,1.0008996 0 0 1 0.74,-1.86 l 5,2 a 1,1 0 0 1 0.39,0.28 l 11,13 A 1,1 0 0 1 29.91,32.42 1,1 0 0 1 29,33 h -8.54 l -5.7,6.65 A 1,1 0 0 1 14,40 Z"
       id="path2"
       style="fill:#28170b" />
    <path
       d="M 13,59 A 1,1 0 0 1 12.49,57.14 L 17.11,54.37 20,40.79 a 1,1 0 0 1 0.72,-0.75 l 11,-3 A 1.0165136,1.0165136 0 1 1 32.26,39 L 21.85,41.8 19,55.21 a 1,1 0 0 1 -0.47,0.65 l -5,3 A 1,1 0 0 1 13,59 Z"
       id="path4"
       style="fill:#28170b" />
    <path
       d="M 29,16 A 1,1 0 0 1 28.12,15.47 C 26.23,12 20.52,2.73 16.8,2 a 1.0198039,1.0198039 0 0 1 0.4,-2 c 5.3,1.06 11.94,13.13 12.68,14.51 A 1,1 0 0 1 29,16 Z"
       id="path6"
       style="fill:#28170b" />
    <path
       d="m 50,40 a 1.19,1.19 0 0 0 0.32,0 l 3,-1 A 1.002447,1.002447 0 0 0 52.68,37.1 L 50.32,37.89 44.76,31.4 A 1,1 0 0 0 44,31 h -6.84 l 9.44,-11.16 4.77,-1.91 a 1.0008996,1.0008996 0 0 0 -0.74,-1.86 l -5,2 a 1,1 0 0 0 -0.39,0.28 l -11,13 A 1,1 0 0 0 34.09,32.42 1,1 0 0 0 35,33 h 8.54 l 5.7,6.65 A 1,1 0 0 0 50,40 Z"
       id="path8"
       style="fill:#28170b" />
    <path
       d="m 51,59 a 1,1 0 0 0 0.51,-1.86 L 46.89,54.37 44,40.79 a 1,1 0 0 0 -0.72,-0.75 l -11,-3 A 1.0165136,1.0165136 0 1 0 31.74,39 L 42.15,41.8 45,55.21 a 1,1 0 0 0 0.47,0.65 l 5,3 A 1,1 0 0 0 51,59 Z"
       id="path10"
       style="fill:#28170b" />
    <path
       d="m 35,16 a 1,1 0 0 0 0.88,-0.53 C 37.77,12 43.48,2.73 47.2,2 A 1.0198039,1.0198039 0 1 0 46.8,0 C 41.5,1.08 34.86,13.15 34.12,14.53 A 1,1 0 0 0 35,16 Z"
       id="path12"
       style="fill:#28170b" />
    <path
       d="m 32,15 a 1,1 0 0 1 -0.83,-0.45 l -4,-6 a 1,1 0 0 1 0,-1.1 l 2,-3 a 1,1 0 1 1 1.66,1.1 L 29.2,8 32,12.2 34.8,8 33.17,5.55 a 1,1 0 1 1 1.66,-1.1 l 2,3 a 1,1 0 0 1 0,1.1 l -4,6 A 1,1 0 0 1 32,15 Z"
       id="path14"
       style="fill:#28170b" />
  </g>
  <path
     d="M 30,39 A 13.51,13.51 0 0 1 29,25 h 6 a 13.51,13.51 0 0 1 -1,14 z"
     fill="#f7716a"
     id="path18"
     style="fill:#502d16" />
  <path
     d="m 40,48 c 0,4.42 -3.58,16 -8,16 -4.42,0 -8,-11.58 -8,-16 0,-4.42 2,-10 8,-10 6,0 8,5.58 8,10 z"
     fill="#d15850"
     id="path20"
     style="fill:#28170b" />
  <ellipse
     cx="32"
     cy="19"
     fill="#d15850"
     rx="6"
     ry="7"
     id="ellipse22"
     style="fill:#28170b" />
  <path
     d="M 26.07,18 C 33,18 32,12 32,12 c -3,0 -5.51,2.61 -5.93,6 z"
     fill="#525252"
     id="path24" />
  <path
     d="M 37.93,18 C 31,18 32,12 32,12 c 3,0 5.51,2.61 5.93,6 z"
     fill="#525252"
     id="path26" />
  <path
     d="M 38.3,56 H 25.7 c 0.25,0.68 0.51,1.35 0.79,2 h 11 c 0.3,-0.65 0.56,-1.32 0.81,-2 z"
     fill="#f7716a"
     id="path28"
     style="fill:#502d16" />
  <path
     d="m 24.17,50 c 0.09,0.62 0.22,1.3 0.38,2 h 14.9 c 0.16,-0.7 0.29,-1.38 0.38,-2 z"
     fill="#f7716a"
     id="path30"
     style="fill:#502d16" />
  <path
     d="M 24.14,46 H 39.86 A 12.74,12.74 0 0 0 39.43,44 H 24.57 a 12.74,12.74 0 0 0 -0.43,2 z"
     fill="#f7716a"
     id="path32"
     style="fill:#502d16" />
</svg>
