<svg height="512" viewBox="0 0 64 64" width="512" xmlns="http://www.w3.org/2000/svg"><g id="_3-giraffe" data-name="3-giraffe"><path d="m15 9a1.00109 1.00109 0 0 1 -.92857-.6284l-1.99968-4.99985a1.00015 1.00015 0 1 1 1.85713-.74315l1.07112 2.67912 1.07112-2.67912a1.00015 1.00015 0 1 1 1.85713.74315l-1.99968 4.99985a1.00109 1.00109 0 0 1 -.92857.6284z" fill="#dbb55c"/><path d="m41 42h4v22h-4z" fill="#f0dc62"/><path d="m26 45 2 9-1 10h4l2-10-3-12z" fill="#f0dc62"/><path d="m30 45 2 9-1 10h4l1-10-3-12z" fill="#fcea81"/><path d="m22.82843 4s-.24264 3.07107-1.41422 4.24264-4.24264 1.41421-4.24264 1.41421.24264-3.07106 1.41422-4.24264 4.24264-1.41421 4.24264-1.41421z" fill="#f0dc62"/><path d="m56 52h-2v-9a3.00328 3.00328 0 0 0 -3-3h-5v-2h5a5.00588 5.00588 0 0 1 5 5z" fill="#dbb55c"/><path d="m15 14h-4s0 1-2 1a1.95878 1.95878 0 0 1 -2-2v-3l6.0777-3.473a4 4 0 0 1 1.98456-.527h.08592a4 4 0 0 1 3.78149 2.696l7.833 20.71575a6 6 0 0 0 5.00964 4.00736l10.75269 1.19478a6 6 0 0 1 4.85228 3.59979l1.62272 3.78632-1 3a43.59714 43.59714 0 0 1 -12 2 24.26637 24.26637 0 0 1 -10-2z" fill="#fcea81"/><path d="m42 41s-2 6 3 9v14h4v-22z" fill="#fcea81"/><path d="m57 52c0 1.10457-2 4-2 4s-2-2.89543-2-4a2 2 0 0 1 4 0z" fill="#b47855"/><path d="m13 8h2v2h-2z" fill="#77594b"/><g fill="#dbb55c"><path d="m23 28a.99676.99676 0 0 1 -.707-.293l-1-1a.99989.99989 0 0 1 1.414-1.414l1 1a1 1 0 0 1 -.707 1.707z"/><path d="m30 43a.99676.99676 0 0 1 -.707-.293l-1-1a.99989.99989 0 0 1 1.414-1.414l1 1a1 1 0 0 1 -.707 1.707z"/><path d="m33 39a.99676.99676 0 0 1 -.707-.293l-1-1a.99989.99989 0 1 1 1.414-1.414l1 1a1 1 0 0 1 -.707 1.707z"/><path d="m38 43a.99676.99676 0 0 1 -.707-.293l-1-1a.99989.99989 0 0 1 1.414-1.414l1 1a1 1 0 0 1 -.707 1.707z"/><path d="m46 47a.99676.99676 0 0 1 -.707-.293l-1-1a.99989.99989 0 0 1 1.414-1.414l1 1a1 1 0 0 1 -.707 1.707z"/><path d="m40 39a.99676.99676 0 0 1 -.707-.293l-1-1a.99989.99989 0 0 1 1.414-1.414l1 1a1 1 0 0 1 -.707 1.707z"/><path d="m27 37a.99676.99676 0 0 1 -.707-.293l-1-1a.99989.99989 0 0 1 1.414-1.414l1 1a1 1 0 0 1 -.707 1.707z"/><path d="m20 20a.99676.99676 0 0 1 -.707-.293l-1-1a.99989.99989 0 0 1 1.414-1.414l1 1a1 1 0 0 1 -.707 1.707z"/></g></g></svg>