<svg height="512" viewBox="0 0 64 64" width="512" xmlns="http://www.w3.org/2000/svg"><g id="_14-wasp" data-name="14-wasp"><g fill="#525252"><path d="m34 25a.93.93 0 0 0 .45-.11l6-3a.94.94 0 0 0 .41-.38l2.88-4.8 2.81-1.88a1 1 0 1 0 -1.1-1.66l-3 2a1 1 0 0 0 -.31.32l-2.85 4.75-5.74 2.87a1 1 0 0 0 -.44 1.34 1 1 0 0 0 .89.55z"/><path d="m50 49a1 1 0 0 0 .55-1.83l-2.82-1.88-4.88-7.82a1 1 0 0 0 -.74-.46l-9-1a1 1 0 1 0 -.22 2l8.52.95 4.74 7.59a1.07 1.07 0 0 0 .3.3l3 2a.94.94 0 0 0 .55.15z"/><path d="m47 59a1 1 0 0 0 .8-.4 1 1 0 0 0 -.2-1.4l-3.7-2.78-1.9-8.64a1 1 0 0 0 -.34-.55l-6-5a1 1 0 0 0 -1.28 1.54l5.74 4.78 1.88 8.67a1 1 0 0 0 .38.58l4 3a1 1 0 0 0 .62.2z"/><path d="m32 18a1 1 0 0 0 .58-.19l7-5a1 1 0 0 0 .31-.36l3-6a1 1 0 0 0 -1.78-.9l-2.89 5.78-6.8 4.86a1 1 0 0 0 .58 1.81z"/></g><path d="m35 31s4 4 13 4 7-5 7-5 9-1 9-8c0-6-28 5-28 5l-2 2z" fill="#ccc7be"/><path d="m30 25a.93.93 0 0 1 -.45-.11l-6-3a.94.94 0 0 1 -.41-.38l-2.88-4.8-2.81-1.88a1 1 0 0 1 1.1-1.66l3 2a1 1 0 0 1 .31.32l2.85 4.75 5.74 2.87a1 1 0 0 1 .44 1.34 1 1 0 0 1 -.89.55z" fill="#525252"/><path d="m14 49a1 1 0 0 1 -.55-1.83l2.82-1.88 4.88-7.82a1 1 0 0 1 .74-.46l9-1a1 1 0 0 1 .22 2l-8.52.95-4.74 7.59a1.07 1.07 0 0 1 -.3.3l-3 2a.94.94 0 0 1 -.55.15z" fill="#525252"/><path d="m17 59a1 1 0 0 1 -.8-.4 1 1 0 0 1 .2-1.4l3.7-2.78 1.9-8.64a1 1 0 0 1 .34-.55l6-5a1 1 0 0 1 1.28 1.54l-5.72 4.78-1.9 8.67a1 1 0 0 1 -.38.58l-4 3a1 1 0 0 1 -.62.2z" fill="#525252"/><path d="m32 18a1 1 0 0 1 -.58-.19l-7-5a1 1 0 0 1 -.31-.36l-3-6a1 1 0 0 1 1.78-.9l2.89 5.78 6.8 4.86a1 1 0 0 1 -.58 1.81z" fill="#525252"/><path d="m32 53a8.61 8.61 0 0 0 5-8c0-9-5-10-5-10s-5 1-5 10a8.61 8.61 0 0 0 5 8z" fill="#ebd557"/><path d="m29 31s-4 4-13 4-7-5-7-5-9-1-9-8c0-6 28 5 28 5l2 2z" fill="#ccc7be"/><path d="m32 35s5-3 5-7-2-7-5-7-5 3-5 7 5 7 5 7z" fill="#695149"/><path d="m36 17a4 4 0 0 1 -8 0c0-2.21 1.79-2 4-2s4-.21 4 2z" fill="#ebd557"/><path d="m29 26h2v2h-2z" fill="#c98353"/><path d="m33 26h2v2h-2z" fill="#c98353"/><path d="m36.8 47h-9.6a8.54 8.54 0 0 0 .69 2h8.22a8.54 8.54 0 0 0 .69-2z" fill="#d3aa4a"/><path d="m27 45h10c0-.72 0-1.38-.1-2h-9.8c-.1.62-.1 1.28-.1 2z" fill="#d3aa4a"/><path d="m27.41 41h9.18a11.23 11.23 0 0 0 -.59-2h-8a11.23 11.23 0 0 0 -.59 2z" fill="#d3aa4a"/></g></svg>