<svg height="512" viewBox="0 0 64 64" width="512" xmlns="http://www.w3.org/2000/svg"><g id="_5-dragonfly" data-name="5-dragonfly"><path d="m31 29s-31 5-31-3c0-6 31-2 31-2z" fill="#87bbc9"/><path d="m31 18s-31-19-31-9c0 7 31 15 31 15z" fill="#a8d7e4"/><path d="m33 29s31 5 31-3c0-6-31-2-31-2z" fill="#87bbc9"/><path d="m33 18s31-19 31-9c0 7-31 15-31 15z" fill="#a8d7e4"/><path d="m35 11a9.79 9.79 0 0 1 -1 7l1 37a3 3 0 0 1 -3 3 3 3 0 0 1 -3-3l1-37a9.79 9.79 0 0 1 -1-7l3-2z" fill="#f7716a"/><g fill="#695149"><circle cx="29" cy="9" r="3"/><circle cx="35" cy="9" r="3"/><path d="m29.27 45-.05 2h5.56l-.05-2z"/><path d="m34.95 53-.06-2h-5.78l-.06 2z"/><path d="m29.59 33-.05 2h4.92l-.05-2z"/><path d="m29.43 39-.05 2h5.24l-.05-2z"/></g></g></svg>