<svg height="512" viewBox="0 0 64 64" width="512" xmlns="http://www.w3.org/2000/svg"><g id="_7-wolf" data-name="7-wolf"><g fill="#95a7b1"><path d="m52 33s0-2 3-2c11 0 5 13 8 16l-11-9z"/><path d="m28 44-3 20h-7c0-2 3-4 3-4l1-18z"/><path d="m18 22 4-5h-7z"/><path d="m52 44v5l3 2 3 13h-7a3.55239 3.55239 0 0 1 2-3l-3-7a19.54452 19.54452 0 0 1 -10-17z"/></g><path d="m2.50122 22.201 3.49878 2.799s2 22 28 22c16 0 23-3 23-3s0-15-16-15-19-4-19-4l4-5h-7l-3.35652-2.68521a5.99994 5.99994 0 0 0 -3.74817-1.31479h-2.89531l-8-4v7.0775a4 4 0 0 0 1.50122 3.1235z" fill="#bdccd4"/><path d="m32 44-3 20h-7c0-2 3-4 3-4l1-18z" fill="#bdccd4"/><path d="m57 44v5l1.6784 1.11893a4 4 0 0 1 1.67876 2.42876l2.64284 11.45231h-7a3.55239 3.55239 0 0 1 2-3l-3-7a19.54452 19.54452 0 0 1 -10-17z" fill="#bdccd4"/><path d="m18 34a8.47591 8.47591 0 0 1 -6.832-3.44531 1 1 0 0 1 1.66162-1.11328 6.44472 6.44472 0 0 0 3.731 2.40283l-.50928-1.52783a1.00055 1.00055 0 0 1 .94866-1.31641h2.58594l-1.293-1.293a.99989.99989 0 0 1 1.41406-1.414l3 3a.99991.99991 0 0 1 -.707 1.707h-3.61279l.56152 1.68359a1.00055 1.00055 0 0 1 -.94873 1.31641z" fill="#95a7b1"/><path d="m11 19h2v2h-2z" fill="#77594b"/></g></svg>