<svg height="512" viewBox="0 0 64 64" width="512" xmlns="http://www.w3.org/2000/svg"><g id="_9-mosquito" data-name="9-mosquito"><g fill="#525252"><path d="m32 29a1 1 0 0 1 -.37-.07l-10-4a1 1 0 0 1 -.62-.79l-1-6.67-4.77-4.76a1 1 0 0 1 1.42-1.42l5 5a1 1 0 0 1 .28.57l.92 6.43 9.46 3.78a1 1 0 0 1 -.32 1.93z"/><path d="m17 62a1 1 0 0 1 -.71-.29 1 1 0 0 1 0-1.42l5.71-5.7v-12.59a1 1 0 0 1 .29-.71l8-8a1 1 0 0 1 1.42 1.42l-7.71 7.7v12.59a1 1 0 0 1 -.29.71l-6 6a1 1 0 0 1 -.71.29z"/><path d="m11 49a1 1 0 0 1 -.51-1.86l4.78-2.87 8.87-14.78a1 1 0 1 1 1.72 1l-9 15a1 1 0 0 1 -.35.35l-5 3a1 1 0 0 1 -.51.16z"/></g><path d="m32 31s-12 3-19 3-13-2-13-4 4-4 13-4 19 3 19 3z" fill="#ccc7be"/><path d="m32 29a1 1 0 0 0 .37-.07l10-4a1 1 0 0 0 .62-.79l.95-6.67 4.77-4.76a1 1 0 0 0 -1.42-1.42l-5 5a1 1 0 0 0 -.28.57l-.92 6.43-9.46 3.78a1 1 0 0 0 .37 1.93z" fill="#525252"/><path d="m47 62a1 1 0 0 0 .71-.29 1 1 0 0 0 0-1.42l-5.71-5.7v-12.59a1 1 0 0 0 -.29-.71l-8-8a1 1 0 0 0 -1.42 1.42l7.71 7.7v12.59a1 1 0 0 0 .29.71l6 6a1 1 0 0 0 .71.29z" fill="#525252"/><path d="m53 49a1 1 0 0 0 .51-1.86l-4.78-2.87-8.87-14.78a1 1 0 1 0 -1.72 1l9 15a1 1 0 0 0 .35.35l5 3a1 1 0 0 0 .51.16z" fill="#525252"/><path d="m32 31s12 3 19 3 13-2 13-4-4-4-13-4-19 3-19 3z" fill="#ccc7be"/><path d="m33 25s5 18-1 18-1-18-1-18z" fill="#695149"/><path d="m32 22a1 1 0 0 1 -1-1v-18a1 1 0 0 1 2 0v18a1 1 0 0 1 -1 1z" fill="#525252"/><path d="m35 23a3 3 0 0 1 -6 0c0-1.66 3-4 3-4s3 2.34 3 4z" fill="#695149"/></g></svg>