<svg height="512" viewBox="0 0 64 64" width="512" xmlns="http://www.w3.org/2000/svg"><g id="_30-pelican" data-name="30-pelican"><path d="m37 64c0-3 5-3 5-3v-7h4v7s3 1 3 3z" fill="#fcea81"/><path d="m32 33s9-5 18-5c7 0 11 6 11 6h-6s4 2 4 4h-7l3 3h-5l3 3a7.651 7.651 0 0 1 -5 2 4.33283 4.33283 0 0 1 -4-2s-10 2-12-11z" fill="#ccc7be"/><path d="m31 42c-7-9-2-23-2-23h-4v-8.00012s1-2.99988 5-2.99988a5.764 5.764 0 0 1 6 6c0 3-7 11-2 23 0 0 22-1 24 12l5 4s-2 4-7 2c0 0-1 3-13 3s-12-16-12-16z" fill="#f6f0e5"/><path d="m34 37s9-5 18-5c7 0 11 6 11 6h-6s4 2 4 4h-7l3 3h-5l3 3a7.651 7.651 0 0 1 -5 2 4.33283 4.33283 0 0 1 -4-2s-10 2-12-11z" fill="#dbd6cd"/><path d="m25 15h-24l.89443-1.78885a4 4 0 0 1 3.57771-2.21115h19.52786z" fill="#fcea81"/><path d="m1 15s0 14 8 14c11 0 16-10 16-10v-4z" fill="#f0dc62"/><path d="m28 11h2v2h-2z" fill="#77594b"/></g></svg>