<svg height="512" viewBox="0 0 64 64" width="512" xmlns="http://www.w3.org/2000/svg"><g id="_24-wild_boar" data-name="24-wild boar"><path d="m29 48v16h-6a3.699 3.699 0 0 1 2-3l-2-12z" fill="#77594b"/><path d="m52 52 1 4-2 8h-7c0-4 3-4 3-4l1-3-4-8s1-3 5-3c3 0 3 6 3 6z" fill="#77594b"/><path d="m61.99414 52.11035-1.98828-.2207.96289-8.665-2.53516-4.22465h-3.43359v-2h4a1.00022 1.00022 0 0 1 .85742.48535l3 5a1.00707 1.00707 0 0 1 .13672.625z" fill="#4e3c36"/><path d="m1 42s5-1 7-3 9-12 16-14l-1 3 8-4v3l6-2v2s22-3 22 10-3 15-3 15l-8-3s-15 4-24 4-21-5-21-5z" fill="#8f6f61"/><path d="m23 36s0-4 5-5c0 0 2 6-5 5z" fill="#77594b"/><path d="m9 47a10.79892 10.79892 0 0 1 -4 8s8-1 8-8z" fill="#f6f0e5"/><path d="m56 52 1 4-2 8h-7c0-4 3-4 3-4l1-3-4-8s1-3 5-3c3 0 3 6 3 6z" fill="#8f6f61"/><path d="m34 48v16h-6a3.699 3.699 0 0 1 2-3l-2-12z" fill="#8f6f61"/><path d="m63 52c0 1.10457-2 4-2 4s-2-2.89543-2-4a2 2 0 0 1 4 0z" fill="#77594b"/><path d="m15 37h2v2h-2z" fill="#4e3c36"/><g fill="#77594b"><path d="m40 32h-2a1 1 0 0 1 0-2h2a1 1 0 0 1 0 2z"/><path d="m50 32h-2a1 1 0 0 1 0-2h2a1 1 0 0 1 0 2z"/><path d="m46 36h-2a1 1 0 0 1 0-2h2a1 1 0 0 1 0 2z"/></g></g></svg>