<svg height="512" viewBox="0 0 64 64" width="512" xmlns="http://www.w3.org/2000/svg"><g id="_29-toucan" data-name="29-toucan"><path d="m0 13s0-12 28-12v12z" fill="#f0dc62"/><path d="m28 9v-8c-28 0-28 12-28 12s8-6 28-4z" fill="#fcea81"/><path d="m0 13a22.08161 22.08161 0 0 1 7.16138-2.925l.83862-3.075-3.00452-1.12671c-4.99481 3.3241-4.99548 7.12671-4.99548 7.12671z" fill="#77594b"/><path d="m50 37 12 26-5-2-13-20z" fill="#77594b"/><path d="m20 50h44v6h-44z" fill="#d89670"/><path d="m50 37-2 6h-4v-2h-4v2h-4l-3-10-.93212-.62141a6 6 0 0 1 -2.55528-3.81559l-1.5126-7.563v-20s18 0 18 15z" fill="#4e3c36"/><path d="m40 16v14a8 8 0 0 0 8 8h6v-14a8 8 0 0 0 -8-8z" fill="#77594b"/><path d="m28 21s10-1 10-9-10-11-10-11z" fill="#f6f0e5"/><path d="m36 43-2 7h4l2-7z" fill="#f0dc62"/><path d="m48 43 2 7h-4l-2-7z" fill="#f0dc62"/><g fill="#fcea81"><path d="m34 53a2.07045 2.07045 0 0 1 -2-2v-2a2 2 0 0 1 4 0v2a2.07045 2.07045 0 0 1 -2 2z"/><path d="m38 53a2.07045 2.07045 0 0 1 -2-2v-2a2 2 0 0 1 4 0v2a2.07045 2.07045 0 0 1 -2 2z"/><path d="m46 53a2.07045 2.07045 0 0 1 -2-2v-2a2 2 0 0 1 4 0v2a2.07045 2.07045 0 0 1 -2 2z"/><path d="m50 53a2.07045 2.07045 0 0 1 -2-2v-2a2 2 0 0 1 4 0v2a2.07045 2.07045 0 0 1 -2 2z"/></g><path d="m31 6h2v2h-2z" fill="#77594b"/><path d="m49 26a2.99008 2.99008 0 0 1 -2-.76562 2.99864 2.99864 0 0 1 -5-2.23438 1 1 0 0 1 2 0 1 1 0 0 0 2 0 1 1 0 0 1 2 0 1 1 0 0 0 2 0 1 1 0 0 1 2 0 3.00328 3.00328 0 0 1 -3 3z" fill="#4e3c36"/><path d="m49 32a2.99008 2.99008 0 0 1 -2-.76562 2.99864 2.99864 0 0 1 -5-2.23438 1 1 0 0 1 2 0 1 1 0 0 0 2 0 1 1 0 0 1 2 0 1 1 0 0 0 2 0 1 1 0 0 1 2 0 3.00328 3.00328 0 0 1 -3 3z" fill="#4e3c36"/></g></svg>