<svg height="512" viewBox="0 0 64 64" width="512" xmlns="http://www.w3.org/2000/svg"><g id="_4-elephant" data-name="4-elephant"><g fill="#95a7b1"><path d="m60.001 50.04736-2.95412-20.04736h-2.04688v-2h3a1 1 0 0 1 .999.95264l3 21z"/><path d="m25 41h11c0 4-3 8-3 8v15h-8a6.1942 6.1942 0 0 1 2-4z"/><path d="m40 46v14a6.1942 6.1942 0 0 0 -2 4h8l1-18z"/></g><path d="m20 41h11c0 4-3 8-3 8v15h-8a6.1942 6.1942 0 0 1 2-4z" fill="#bdccd4"/><path d="m20 33v8l20 7h14c5-5 6-11 6-19a15.37957 15.37957 0 0 0 -15-15c-8 0-10 4-13 3-5-2-12-2-12-2-2 0-6 4-6 4-6.07513 0-10 9.402-10 21s1.92487 19 8 19v-4c-5-4-3-20-3-20a8.22641 8.22641 0 0 0 11-2z" fill="#bdccd4"/><path d="m54 48 4 16h-9a6.1942 6.1942 0 0 1 2-4l-4-12s-4-4-4-9 3-7 3-7z" fill="#bdccd4"/><path d="m20 20-1.24264 1.24264a6 6 0 0 0 -1.75736 4.24264v12.51472h2.73524a4 4 0 0 0 3.43-1.942l1.83476-3.058 3-4v-8c0-3-6-6-8-6z" fill="#95a7b1"/><path d="m1 27a10.79892 10.79892 0 0 0 8 4v4s-8 0-8-8z" fill="#f6f0e5"/><path d="m63 50c0 1.10457-2 4-2 4s-2-2.89543-2-4a2 2 0 0 1 4 0z" fill="#bdccd4"/><path d="m11 24h2v2h-2z" fill="#77594b"/></g></svg>