<svg height="512" viewBox="0 0 64 64" width="512" xmlns="http://www.w3.org/2000/svg"><g id="_6-honeybee" data-name="6-honeybee"><path d="m37 25a.93.93 0 0 0 .45-.11l8-4a.94.94 0 0 0 .44-.44l1.86-3.7 1.7-.86a1 1 0 1 0 -.9-1.78l-2 1a.94.94 0 0 0 -.44.44l-1.86 3.7-7.7 3.86a1 1 0 0 0 -.44 1.34 1 1 0 0 0 .89.55z" fill="#404040"/><path d="m51 43a1 1 0 0 0 .89-.55 1 1 0 0 0 -.44-1.34l-1.63-.82-.82-2.61a1 1 0 0 0 -.79-.67l-6-1a1 1 0 0 0 -.32 2l5.4.9.81 2.43a1 1 0 0 0 .5.57l2 1a.93.93 0 0 0 .4.09z" fill="#404040"/><path d="m45 58a.93.93 0 0 0 .45-.11 1 1 0 0 0 .44-1.34l-.81-1.63.87-2.6a1 1 0 0 0 -.19-1l-6-7a1 1 0 1 0 -1.52 1.3l5.63 6.57-.82 2.46a1 1 0 0 0 .06.77l1 2a1 1 0 0 0 .89.58z" fill="#404040"/><circle cx="41" cy="40" fill="#de9767" r="5"/><g fill="#404040"><path d="m33 16a.94.94 0 0 0 .55-.17c.26-.16 6.18-4.14 9.25-8.23a1 1 0 0 0 -1.6-1.2c-2.86 3.81-8.7 7.73-8.75 7.77a1 1 0 0 0 -.28 1.39 1 1 0 0 0 .83.44z"/><path d="m13 43a1 1 0 0 1 -.89-.55 1 1 0 0 1 .44-1.34l1.63-.82.87-2.61a1 1 0 0 1 .79-.67l6-1a1 1 0 0 1 .32 2l-5.4.9-.76 2.41a1 1 0 0 1 -.5.57l-2 1a.93.93 0 0 1 -.5.11z"/><path d="m27 25a.93.93 0 0 1 -.45-.11l-8-4a.94.94 0 0 1 -.44-.44l-1.86-3.7-1.7-.86a1 1 0 1 1 .9-1.78l2 1a.94.94 0 0 1 .44.44l1.86 3.7 7.7 3.86a1 1 0 0 1 .44 1.34 1 1 0 0 1 -.89.55z"/><path d="m19 58a.93.93 0 0 1 -.45-.11 1 1 0 0 1 -.44-1.34l.81-1.63-.87-2.6a1 1 0 0 1 .19-1l6-7a1 1 0 0 1 1.52 1.3l-5.63 6.57.87 2.49a1 1 0 0 1 -.06.77l-1 2a1 1 0 0 1 -.94.55z"/><path d="m31 16a.94.94 0 0 1 -.55-.17c-.26-.16-6.18-4.14-9.25-8.23a1 1 0 0 1 1.6-1.2c2.86 3.81 8.7 7.73 8.75 7.77a1 1 0 0 1 .28 1.39 1 1 0 0 1 -.83.44z"/></g><path d="m32 13c-13 0-6 9-6 9v1h12v-1s7-9-6-9z" fill="#695149"/><circle cx="23" cy="40" fill="#de9767" r="5"/><path d="m38 39c2-2 1-8 1-8h-14s-1 6 1 8z" fill="#695149"/><path d="m31 13c-6.09.24-7.17 2.69-6.82 5 7.6-.08 6.87-4.75 6.82-5z" fill="#f7716a"/><path d="m41 44c0 5-4 13-9 13s-9-8-9-13 4-7 9-7 9 2 9 7z" fill="#ebd557"/><path d="m33 13c6.09.24 7.17 2.69 6.82 5-7.6-.08-6.82-4.75-6.82-5z" fill="#f7716a"/><path d="m38 22s3 1 3 6a7.6 7.6 0 0 1 -.51 2.71 2 2 0 0 1 -1.87 1.29h-13.24a2 2 0 0 1 -1.87-1.29 7.6 7.6 0 0 1 -.51-2.71c0-5 3-6 3-6z" fill="#ebd557"/><path d="m23 44h18a7.81 7.81 0 0 0 -.26-2h-17.48a7.81 7.81 0 0 0 -.26 2z" fill="#404040"/><path d="m38.57 52h-13.14a15.36 15.36 0 0 0 1.38 2h10.38a15.36 15.36 0 0 0 1.38-2z" fill="#404040"/><path d="m23.4 47a15.73 15.73 0 0 0 .6 2h16a15.73 15.73 0 0 0 .61-2z" fill="#404040"/><path d="m24 31s-9 5-12 4-1-5-1-5-11 2-11-8c0-6 24 4 24 4l3 3z" fill="#ccc7be"/><path d="m40 31s9 5 12 4 1-5 1-5 11 2 11-8c0-6-24 4-24 4l-3 3z" fill="#ccc7be"/></g></svg>