<?xml version="1.0" encoding="UTF-8" standalone="no"?>
<svg
   height="512"
   viewBox="0 0 512 512"
   width="512"
   version="1.1"
   id="svg41"
   sodipodi:docname="squash.svg"
   inkscape:version="1.1 (c68e22c387, 2021-05-23)"
   xmlns:inkscape="http://www.inkscape.org/namespaces/inkscape"
   xmlns:sodipodi="http://sodipodi.sourceforge.net/DTD/sodipodi-0.dtd"
   xmlns="http://www.w3.org/2000/svg"
   xmlns:svg="http://www.w3.org/2000/svg">
  <defs
     id="defs45" />
  <sodipodi:namedview
     id="namedview43"
     pagecolor="#505050"
     bordercolor="#eeeeee"
     borderopacity="1"
     inkscape:pageshadow="0"
     inkscape:pageopacity="0"
     inkscape:pagecheckerboard="0"
     showgrid="false"
     inkscape:zoom="0.5078125"
     inkscape:cx="485.41538"
     inkscape:cy="325.90769"
     inkscape:window-width="1366"
     inkscape:window-height="705"
     inkscape:window-x="-8"
     inkscape:window-y="-8"
     inkscape:window-maximized="1"
     inkscape:current-layer="svg41" />
  <g
     id="g31"
     transform="translate(108.30769,-1.9692308)">
    <path
       d="m 128,112 v -8 c 0,-44.183 32.235,-80 72,-80 v 32 c -19,0 -33.6,18.7 -30.909,39.6 L 171.2,112 Z"
       fill="#f2dec2"
       id="path2" />
    <path
       d="M 280,377.5 C 280,438.53 222.69,488 152,488 93.21,488 43.67,453.78 28.66,407.15 A 96.407,96.407 0 0 1 24,377.5 C 24,344.87 40.38,305.83 66.43,276.56 A 34.236,34.236 0 0 0 75.2,253.81 V 164.5 a 76.8,76.8 0 0 1 153.6,0 v 89.31 a 34.236,34.236 0 0 0 8.77,22.75 C 263.62,305.83 280,344.87 280,377.5 Z"
       fill="#ffb531"
       id="path4" />
    <path
       d="M 280,377.5 C 280,438.53 222.69,488 152,488 93.21,488 43.67,453.78 28.66,407.15 106.49,383.21 175.64,336.09 228.8,242.94 v 10.87 a 34.236,34.236 0 0 0 8.77,22.75 C 263.62,305.83 280,344.87 280,377.5 Z"
       fill="#fcb12b"
       id="path6" />
    <g
       fill="#faa50f"
       id="g22">
      <path
         d="m 200.96,181.5 h -16 v -17 a 124.335,124.335 0 0 0 -3.989,-31.942 l 15.462,-4.116 a 140.338,140.338 0 0 1 4.527,36.058 z"
         id="path8" />
      <path
         d="m 196.854,295.3 c -2.006,-5.375 -4.175,-10.526 -6.445,-15.309 A 62.356,62.356 0 0 1 184.96,253.814 V 199 h 16 v 54.812 a 46.123,46.123 0 0 0 3.9,19.318 c 2.466,5.195 4.814,10.77 6.979,16.572 z"
         id="path10" />
      <path
         d="m 210.731,352.948 c -0.97,-8.135 -2.39,-16.452 -4.218,-24.72 l 15.622,-3.456 c 1.942,8.782 3.45,17.624 4.484,26.28 z"
         id="path12" />
      <path
         d="m 210.224,454.42 -14.047,-7.66 c 10.375,-19.028 16.09,-43.625 16.09,-69.26 0,-2.646 -0.061,-5.389 -0.182,-8.151 l 15.984,-0.7 c 0.131,2.994 0.2,5.971 0.2,8.849 -0.002,28.268 -6.41,55.585 -18.045,76.922 z"
         id="path14" />
      <path
         d="M 87.026,439.942 C 79.638,421.266 75.733,399.673 75.733,377.5 c 0,-24.552 4.861,-53.349 13.335,-79.009 l 15.193,5.018 C 96.3,327.615 91.733,354.584 91.733,377.5 c 0,20.178 3.517,39.735 10.171,56.558 z"
         id="path16" />
      <path
         d="m 161.067,352 h 16 v 17 h -16 z"
         id="path18" />
      <path
         d="m 126.933,403 h 16 v 17 h -16 z"
         id="path20" />
    </g>
    <path
       d="m 101.333,181.5 h 16 V 233 h -16 z"
       fill="#ffc361"
       id="path36" />
    <path
       d="m 117.333,164.5 h -16 a 149.371,149.371 0 0 1 1.074,-17.965 l 15.883,1.93 a 133.4,133.4 0 0 0 -0.957,16.035 z"
       fill="#ffc361"
       id="path38" />
  </g>
</svg>
