<svg id="_1-deer" height="512" viewBox="0 0 64 64" width="512" xmlns="http://www.w3.org/2000/svg" data-name="1-deer"><path d="m46 47-4 17h-4l5-20z" fill="#b47855"/><path d="m28 39h4v25h-4z" fill="#d89670"/><path d="m28 40-5 15v9h-4v-9l5-16z" fill="#b47855"/><path d="m49.82267 41a14.82532 14.82532 0 0 1 -1.82267 6l6 9-1 8h-4l1-7-4-6c-8-4-6-10-6-10z" fill="#d89670"/><path d="m48 36s1.71429-3 4-3 4 3 4 3a4.16667 4.16667 0 0 1 -8 0z" fill="#b47855"/><path d="m18 23s-5 22 15 22h7l8.91428.00006a21.06529 21.06529 0 0 0 1.08572-7.00006c0-8-12-7-19-6s-7-15.00005-7-15.00005l-6 3.00005z" fill="#d89670"/><path d="m19 14a10.79892 10.79892 0 0 1 8-4l-4 8z" fill="#b47855"/><path d="m25.47673 4.14664a1.02064 1.02064 0 0 0 -1.34979.37009c-.00861.01477-.92372 1.41105-4.84321 1.47752l.68784-2.75088a1.00023 1.00023 0 0 0 -1.9407-.48532l-.75587 3.02289a4.61344 4.61344 0 0 1 -3.30572-3.02924 1.0003 1.0003 0 0 0 -1.93928.49167 6.62276 6.62276 0 0 0 5.0745 4.55192l.289 2.02228-3.15028-.78743a1.00005 1.00005 0 1 0 -.48542 1.94031l3.94116.98511.31236 3.18609a1.00012 1.00012 0 0 0 .98844.85835 1.01862 1.01862 0 0 0 .14309-.01025.99985.99985 0 0 0 .84826-1.13128l-.83758-6.86208c5.32789-.04382 6.61359-2.28991 6.74318-2.54856a.98058.98058 0 0 0 -.41998-1.30119z" fill="#77594b"/><path d="m8 19s7-6 12-6c2.16464 0 4 1 4 3.99995s-1.92684 6.00005-11 6.00005c-4 0-5-4-5-4z" fill="#d89670"/><path d="m16 16h2v2h-2z" fill="#4e3c36"/><g fill="#77594b"><path d="m38 38h-2a1 1 0 0 1 0-2h2a1 1 0 0 1 0 2z"/><path d="m43 36h-2a1 1 0 0 1 0-2h2a1 1 0 0 1 0 2z"/><path d="m33 36h-2a1 1 0 0 1 0-2h2a1 1 0 0 1 0 2z"/></g></svg>