<svg height="512" viewBox="0 0 64 64" width="512" xmlns="http://www.w3.org/2000/svg"><g id="_9-horse" data-name="9-horse"><path d="m8 17a3.699 3.699 0 0 1 -2-3c0-2 2-4 2-4l3 7z" fill="#b47855"/><path d="m27 40 2 13-1 11h-4l1-11-2-13z" fill="#d89670"/><path d="m54 42c-2 3 2 10 2 10l-2 12h-6s5-10 2-14-2-10-2-10z" fill="#b47855"/><path d="m31 40 2 13-1 11h-4l1-11-2-13z" fill="#b47855"/><path d="m57 31s6 5 6 13a88.676 88.676 0 0 1 -1 13s-10-12-5-26z" fill="#8f6f61"/><path d="m8 26 2-1s9 5 10 11c0 0-2 6 9 7a25.39287 25.39287 0 0 0 12 3c7 0 18-3 18-10s-5-10-9-10-16 3-20-2v-1s-13-9-19-9c0 0-3 0-4 2l-5 5-1 3v2a3 3 0 0 0 3 3h1a3 3 0 0 0 3-3z" fill="#d89670"/><path d="m57 38c-2 3 1 14 1 14l-2 12h-5s5-10 2-14-2-14-2-14z" fill="#d89670"/><path d="m11 17a3.699 3.699 0 0 1 -2-3c0-2 2-4 2-4l3 7z" fill="#c48865"/><path d="m7 19h2v2h-2z" fill="#77594b"/></g></svg>