<svg height="512" viewBox="0 0 64 64" width="512" xmlns="http://www.w3.org/2000/svg"><g id="_4-ladybug" data-name="4-ladybug"><g fill="#404040"><path d="m32 11a1 1 0 0 1 -.71-.29l-4.8-4.81-3.73-.9a1 1 0 0 1 -.71-.65l-1-3a1 1 0 0 1 1.95-.67l.83 2.48 3.41.84a1 1 0 0 1 .47.26l5 5a1 1 0 0 1 0 1.42 1 1 0 0 1 -.71.32z"/><path d="m11 64a1 1 0 0 1 -.89-.55 1 1 0 0 1 .44-1.34l3.26-1.63-1.81-6.21a1 1 0 0 1 .36-1.07l8-6a1 1 0 0 1 1.2 1.6l-7.45 5.59 1.89 6.34a1 1 0 0 1 -.51 1.16l-4 2a.93.93 0 0 1 -.49.11z"/><path d="m18 27a1 1 0 0 1 -.71-.29l-7-7a1 1 0 0 1 -.29-.71v-5.18l-4.2-.82a1 1 0 1 1 .4-2l5 1a1 1 0 0 1 .8 1v5.59l6.71 6.7a1 1 0 0 1 0 1.42 1 1 0 0 1 -.71.29z"/><path d="m4 47a1 1 0 0 1 -.8-.4 1 1 0 0 1 .2-1.4l3.6-2.7v-6.5a1 1 0 0 1 .68-1l9-3a1 1 0 0 1 .64 1.9l-8.32 2.82v6.28a1 1 0 0 1 -.4.8l-4 3a1 1 0 0 1 -.6.2z"/><path d="m32 11a1 1 0 0 0 .71-.29l4.8-4.81 3.73-.9a1 1 0 0 0 .76-.68l1-3a1 1 0 0 0 -1.9-.64l-.83 2.48-3.51.84a1 1 0 0 0 -.47.26l-5 5a1 1 0 0 0 0 1.42 1 1 0 0 0 .71.32z"/><path d="m53 64a1 1 0 0 0 .89-.55 1 1 0 0 0 -.44-1.34l-3.26-1.63 1.81-6.21a1 1 0 0 0 -.36-1.07l-8-6a1 1 0 0 0 -1.2 1.6l7.45 5.59-1.89 6.34a1 1 0 0 0 .51 1.16l4 2a.93.93 0 0 0 .49.11z"/><path d="m46 27a1 1 0 0 0 .71-.29l7-7a1 1 0 0 0 .29-.71v-5.18l4.2-.82a1 1 0 1 0 -.4-2l-5 1a1 1 0 0 0 -.8 1v5.59l-6.71 6.7a1 1 0 0 0 0 1.42 1 1 0 0 0 .71.29z"/><path d="m60 47a1 1 0 0 0 .8-.4 1 1 0 0 0 -.2-1.4l-3.6-2.7v-6.5a1 1 0 0 0 -.68-1l-9-3a1 1 0 0 0 -.64 1.9l8.32 2.82v6.28a1 1 0 0 0 .4.8l4 3a1 1 0 0 0 .6.2z"/></g><path d="m41 13-3-3a8.76 8.76 0 0 0 -6-2 8.76 8.76 0 0 0 -6 2l-3 3s-3 4-3 7c0 0 2 4 12 4s12-4 12-4c0-3-3-7-3-7z" fill="#695149"/><path d="m44 20h-24s-6 2-6 14c0 24 18 24 18 24s18 0 18-24c0-12-6-14-6-14z" fill="#f7716a"/><path d="m32 20v38s18 0 18-24c0-12-6-14-6-14z" fill="#d15850"/><circle cx="25" cy="12" fill="#404040" r="2"/><circle cx="39" cy="12" fill="#404040" r="2"/><circle cx="32" cy="28" fill="#525252" r="4"/><circle cx="21" cy="34" fill="#525252" r="4"/><circle cx="25" cy="46" fill="#525252" r="4"/><circle cx="43" cy="34" fill="#404040" r="4"/><circle cx="39" cy="46" fill="#404040" r="4"/><path d="m32 24v8a4 4 0 0 0 0-8z" fill="#404040"/></g></svg>