<svg height="512pt" viewBox="-53 0 512 512" width="512pt" xmlns="http://www.w3.org/2000/svg"><g fill-rule="evenodd"><path d="m208.066406 66.117188c-12.9375 22.285156-21.421875 46.867187-24.980468 72.386718-12.007813-11.917968-33.988282-34.515625-60.914063-43.34375-1.046875-32.761718 5.480469-65.328125 19.070313-95.160156 0 0 35.308593 0 61.792968 53.40625zm0 0" fill="#9ed26a"/><path d="m52.964844 135.503906c-5.511719 2.886719-10.542969 6.609375-14.917969 11.035156-20.304687 20.390626-23.304687 50.582032-6.886719 67.972657-6.023437 5.183593-10.996094 11.476562-14.652344 18.535156-13.859374 26.484375-8.828124 58 11.035157 70.621094 5.726562 3.664062 12.453125 5.453125 19.242187 5.121093-4.890625 6.433594-8.355468 13.835938-10.152344 21.714844-6 26.484375 6.535157 51.289063 27.898438 56.234375h.617188c-2.34375 6.167969-3.480469 12.730469-3.355469 19.332031 0 24.363282 15.800781 44.136719 35.308593 44.136719 3.1875.011719 6.355469-.527343 9.359376-1.589843 2.734374 20.921874 17.125 36.898437 34.78125 36.898437 7.582031-.09375 14.859374-3.019531 20.390624-8.207031 4.640626 19.429687 21.460938 33.523437 41.402344 34.691406 19.929688-1.195312 36.738282-15.277344 41.402344-34.691406 5.53125 5.1875 12.804688 8.113281 20.390625 8.207031 17.65625 0 32.042969-15.976563 34.78125-36.898437 3.003906 1.0625 6.167969 1.601562 9.355469 1.589843 19.507812 0 35.3125-19.773437 35.3125-44.136719.046875-6.550781-1.152344-13.054687-3.53125-19.15625h.617187c21.363281-4.945312 33.898438-30.101562 27.894531-56.234374-1.796874-7.878907-5.257812-15.28125-10.152343-21.714844 6.792969.332031 13.515625-1.457032 19.246093-5.121094 19.859376-12.710938 24.890626-44.136719 11.035157-70.617188-3.601563-7.097656-8.582031-13.402343-14.65625-18.539062 16.417969-17.65625 13.417969-47.582031-6.886719-67.972656-4.335938-4.4375-9.304688-8.214844-14.742188-11.210938zm0 0" fill="#eb5463"/><path d="m265.976562 62.765625c-14.457031 16.523437-25.042968 36.066406-30.984374 57.203125-4.414063 32.925781-19.246094 58.261719-31.78125 65.410156-11.386719-8.386718-18.890626-31.957031-24.097657-57.996094 4.394531-26.117187 13.839844-51.121093 27.804688-73.621093 6.160156-10.179688 13.378906-19.679688 21.539062-28.339844 10.414063-9.746094 26.675781-9.5 36.785157.5625 10.109374 10.0625 10.433593 26.324219.734374 36.78125zm0 0" fill="#937661"/><path d="m203.035156 183.96875v1.410156s-4.855468 0-13.332031-.707031c-4.675781 0-10.414063-.882813-17.125-1.765625-20.296875-2.621094-40.324219-7.023438-59.851563-13.152344l-6.796874-2.03125c-19.484376-7.390625-37.441407-18.3125-52.964844-32.21875-19.457032-16.898437-37.195313-35.671875-52.964844-56.054687 41.410156-1.113281 82.738281 4.1875 122.527344 15.710937 21.238281 6.136719 40.742187 17.171875 56.9375 32.222656 12.855468 11.988282 21.179687 28.046876 23.570312 45.460938v2.382812c-.230468 2.910157-.230468 5.832032 0 8.742188zm0 0" fill="#89c053"/><g fill="#d94452"><path d="m169.3125 186.527344c-6.898438 10.046875-10.535156 21.976562-10.414062 34.164062 0 6.714844 1.070312 13.390625 3.175781 19.773438-16.773438 23.390625-45.902344 31.335937-65.589844 17.652344-2.03125-1.402344-3.894531-3.03125-5.558594-4.855469-7.671875-8.253907-11.792969-19.191407-11.476562-30.453125.144531-11.953125 3.898437-23.585938 10.769531-33.367188 5.644531-8.292968 13.257812-15.054687 22.15625-19.6875 19.527344 6.128906 39.554688 10.53125 59.851562 13.152344-1.066406 1.128906-2.039062 2.339844-2.914062 3.621094zm0 0"/><path d="m90.925781 253.261719c-1.359375 1.984375-2.597656 4.050781-3.710937 6.179687-5.425782 10.234375-8.101563 21.703125-7.765625 33.28125-8.195313 9.574219-19.910157 15.433594-32.488281 16.242188-6.789063.332031-13.515626-1.457032-19.242188-5.121094-19.863281-12.710938-24.894531-44.136719-11.035156-70.617188 3.65625-7.058593 8.628906-13.351562 14.65625-18.539062l.703125.707031c12.925781 11.652344 31.488281 14.625 47.40625 7.589844-.269531 11.203125 3.847656 22.066406 11.476562 30.277344zm0 0"/><path d="m326.621094 222.808594c.3125 11.261718-3.808594 22.199218-11.476563 30.453125-1.664062 1.824219-3.53125 3.453125-5.5625 4.855469-19.683593 13.683593-48.816406 5.738281-65.585937-17.652344 2.101562-6.382813 3.175781-13.058594 3.175781-19.773438.121094-12.1875-3.515625-24.117187-10.414063-34.164062-.898437-1.265625-1.871093-2.476563-2.914062-3.621094 20.222656-2.65625 40.1875-7.027344 59.671875-13.0625 9.023437 4.480469 16.71875 11.234375 22.335937 19.597656 6.871094 9.78125 10.625 21.414063 10.769532 33.367188zm0 0"/><path d="m378.351562 303.757812c-5.730468 3.664063-12.453124 5.453126-19.246093 5.121094-12.558594-.808594-24.261719-6.628906-32.484375-16.15625.320312-11.550781-2.355469-22.984375-7.769532-33.191406-1.109374-2.132812-2.347656-4.195312-3.707031-6.179688 7.691407-8.277343 11.8125-19.25 11.476563-30.542968 15.914062 7.035156 34.480468 4.0625 47.402344-7.59375l.707031-.703125c6.074219 5.136719 11.054687 11.441406 14.65625 18.535156 13.855469 26.308594 8.824219 58.261719-11.035157 70.710937zm0 0"/><path d="m247.171875 300.136719c.132813 2.117187.132813 4.242187 0 6.355469-1.175781 12.476562-6.453125 24.210937-15.007813 33.371093-7.339843 8.414063-17.960937 13.238281-29.128906 13.238281-11.167968 0-21.789062-4.824218-29.132812-13.238281-8.550782-9.160156-13.832032-20.894531-15.003906-33.371093-.132813-2.113282-.132813-4.238282 0-6.355469-.210938-14.664063 5.152343-28.859375 15.003906-39.722657 7.34375 8.414063 17.964844 13.242188 29.132812 13.242188 11.167969 0 21.789063-4.828125 29.128906-13.242188 9.851563 10.863282 15.214844 25.058594 15.007813 39.722657zm0 0"/><path d="m247.171875 459.035156c.007813 6.191406-.914063 12.351563-2.734375 18.273438-4.664062 19.414062-21.472656 33.496094-41.402344 34.691406-19.941406-1.167969-36.761718-15.261719-41.402344-34.691406-1.285156-3.878906-2.203124-7.867188-2.734374-11.917969-.132813-2.117187-.132813-4.238281 0-6.355469-.210938-14.664062 5.152343-28.863281 15.003906-39.726562 7.34375 8.414062 17.964844 13.242187 29.132812 13.242187 11.167969 0 21.789063-4.828125 29.128906-13.242187 9.851563 10.863281 15.214844 25.0625 15.007813 39.726562zm0 0"/><path d="m158.898438 385.941406c.511718 5.023438 1.609374 9.972656 3.265624 14.742188-8.921874 10.644531-22.914062 15.613281-36.546874 12.976562-3.316407-.800781-6.496094-2.082031-9.445313-3.796875-10.890625-7.234375-17.902344-19.019531-19.070313-32.042969-.898437-6.800781-.570312-13.707031.972657-20.390624 1.890625-8.328126 5.597656-16.136719 10.859375-22.863282 15.183594 2.511719 30.5625-3.195312 40.429687-15.007812 3.699219-3.949219 6.902344-8.335938 9.535157-13.066406 1.171874 12.476562 6.453124 24.210937 15.003906 33.371093-9.851563 10.863281-15.214844 25.058594-15.003906 39.722657-.132813 2.117187-.132813 4.238281 0 6.355468zm0 0"/><path d="m308.964844 377.820312c-1.246094 13.085938-8.398438 24.886719-19.421875 32.042969-2.945313 1.714844-6.128907 2.996094-9.445313 3.796875-13.632812 2.636719-27.625-2.332031-36.542968-12.976562 2.390624-6.777344 3.617187-13.910156 3.617187-21.097656.207031-14.664063-5.15625-28.859376-15.007813-39.722657 8.554688-9.160156 13.832032-20.894531 15.007813-33.371093 11.652344 21.097656 32.042969 32.046874 49.964844 28.074218 5.261719 6.726563 8.96875 14.535156 10.859375 22.863282 1.539062 6.683593 1.871094 13.589843.96875 20.390624zm0 0"/><path d="m105.929688 441.378906c0 2.421875.175781 4.84375.53125 7.238282-3.003907 1.0625-6.171876 1.601562-9.359376 1.589843-19.507812 0-35.308593-19.773437-35.308593-44.136719-.046875-6.550781 1.152343-13.054687 3.53125-19.15625 11.390625 2.160157 23.136719-1.101562 31.777343-8.828124 1.246094 13.085937 8.398438 24.882812 19.421876 32.042968-6.96875 8.917969-10.703126 19.933594-10.59375 31.25zm0 0"/><path d="m344.277344 406.070312c0 24.363282-15.804688 44.136719-35.3125 44.136719-3.1875.011719-6.351563-.527343-9.355469-1.589843.355469-2.394532.53125-4.816407.527344-7.238282.171875-11.40625-3.566407-22.527344-10.59375-31.515625 11.023437-7.15625 18.175781-18.957031 19.421875-32.042969 8.644531 7.726563 20.390625 10.992188 31.78125 8.828126 2.410156 6.1875 3.609375 12.78125 3.53125 19.421874zm0 0"/></g><path d="m203.035156 183.96875v1.410156s-4.855468 0-13.332031-.707031c-13.707031-11.636719-28.484375-21.953125-44.136719-30.808594-3.070312-1.386719-5.082031-4.402343-5.1875-7.769531-.105468-3.367188 1.71875-6.5 4.695313-8.078125 2.980469-1.574219 6.59375-1.316406 9.320312.664063 17.320313 9.726562 33.617188 21.171874 48.640625 34.164062v2.382812c-.230468 2.910157-.230468 5.832032 0 8.742188zm0 0" fill="#9ed26a"/><path d="m114.757812 136.472656c-1.3125-.007812-2.613281-.308594-3.796874-.882812l-8.824219-3.882813c-4.292969-2.019531-6.222657-7.066406-4.371094-11.433593 1.851563-4.367188 6.820313-6.488282 11.253906-4.808594l8.828125 4.148437c3.703125 1.667969 5.792969 5.644531 5.058594 9.640625-.730469 3.996094-4.09375 6.976563-8.148438 7.21875zm0 0" fill="#9ed26a"/><path d="m406.070312 79.449219c-15.753906 20.394531-33.496093 39.171875-52.96875 56.054687-15.496093 13.9375-33.460937 24.863282-52.964843 32.21875-2.207031.707032-4.414063 1.503906-6.621094 2.121094-19.484375 6.035156-39.449219 10.40625-59.671875 13.0625-6.621094.882812-12.449219 1.414062-17.125 1.855469-7.152344.53125-11.832031.617187-13.242188.617187h-.441406s0-.527344 0-1.410156c.234375-2.941406.234375-5.890625 0-8.828125 0-.621094 0-1.324219 0-2.03125 3.058594-21.246094 14.585938-40.351563 31.957032-52.964844 27.539062-21.894531 78.210937-40.695312 171.078124-40.695312zm0 0" fill="#89c053"/><path d="m260.503906 153.863281c-15.675781 8.855469-30.457031 19.199219-44.140625 30.898438-7.148437.53125-11.828125.617187-13.242187.617187h-.085938s0-.527344 0-1.410156c.234375-2.941406.234375-5.890625 0-8.828125 0-.621094 0-1.324219 0-2.03125 14.964844-13.089844 31.199219-24.652344 48.460938-34.515625 4.125-1.863281 8.992187-.308594 11.269531 3.605469 2.273437 3.914062 1.222656 8.914062-2.441406 11.578125zm0 0" fill="#9ed26a"/><path d="m291.308594 136.472656c-4.179688.066406-7.832032-2.808594-8.75-6.886718-.917969-4.078126 1.152344-8.238282 4.957031-9.972657l8.828125-4.148437c2.925781-1.378906 6.371094-1.042969 8.980469.871094 2.609375 1.917968 3.960937 5.105468 3.523437 8.308593-.4375 3.207031-2.59375 5.917969-5.621094 7.0625l-8.828124 3.882813c-.964844.484375-2.011719.78125-3.089844.882812zm0 0" fill="#9ed26a"/></g></svg>