<svg height="512" viewBox="0 0 64 64" width="512" xmlns="http://www.w3.org/2000/svg"><g id="_17-hippo" data-name="17-hippo"><path d="m32 46v14a4.33283 4.33283 0 0 0 -2 4h7l3-20z" fill="#82769b"/><ellipse cx="14" cy="25" fill="#82769b" rx="2" ry="3"/><ellipse cx="17" cy="25" fill="#aa99cf" rx="2" ry="3"/><path d="m47 43c0 11 6 11 6 18 0 0-2 0-2 3h8v-22c0-4.99329-1.44543-8.65088-3.69952-11.31665-2.85303 1.34985-8.30048 4.89697-8.30048 12.31665z" fill="#82769b"/><path d="m41 24c-9 0-22 2-22 2h-4.92963a2 2 0 0 0 -1.6641.8906l-1.40627 2.1094h-6s-4 2-4 8c0 5 4 6 4 6h10c1 3 3 3 3 3 0 3 3 4 3 4s0 8 19 8c9 0 23-1 23-16s-13-18-22-18z" fill="#aa99cf"/><path d="m51 43c0 11 6 11 6 18 0 0-2 0-2 3h8v-22c0-4.99329-1.44543-8.65088-3.69952-11.31665-2.85303 1.34985-8.30048 4.89697-8.30048 12.31665z" fill="#aa99cf"/><path d="m28 46v14a4.33283 4.33283 0 0 0 -2 4h7l3-20z" fill="#aa99cf"/><path d="m14 28h2v2h-2z" fill="#77594b"/><g fill="#82769b"><path d="m23.707 47.293a.99962.99962 0 0 0 -1.41406 0l-2.23609 2.23608a4.84172 4.84172 0 0 0 .94315.47092 3.73165 3.73165 0 0 0 .26141 1.15265l2.44559-2.44565a.99962.99962 0 0 0 0-1.414z"/><path d="m22.89453 43.44727a1.00012 1.00012 0 1 0 -1.78906-.89454c-.48706.97327-2.58392 2.19776-4.32019 3.0127a2.50151 2.50151 0 0 0 1.21472.43457 4.0202 4.0202 0 0 0 .158 1.12152c1.67391-.82788 3.99306-2.18793 4.73653-3.67425z"/><path d="m27.31641 31.05127a.99626.99626 0 0 0 -1.26465.63232l-1.544 4.63282a.99976.99976 0 0 1 -.94917.68359h-2.55859a1.0004 1.0004 0 0 0 -.89453.55273c-1.61261 3.22522-5.48474 5.07984-6.3114 5.44727h1.20593a6.21946 6.21946 0 0 0 .61713 1.33722 15.19885 15.19885 0 0 0 5.9776-5.33722h1.96386a2.99629 2.99629 0 0 0 2.84571-2.05078l1.54394-4.63281a1.00006 1.00006 0 0 0 -.63183-1.26514z"/></g></g></svg>