<svg height="512" viewBox="0 0 64 64" width="512" xmlns="http://www.w3.org/2000/svg"><g id="_10-koala" data-name="10-koala"><path d="m30 26-12 5 1 6h11z" fill="#77594b"/><path d="m64 43-27 15v6h-9v-6l-28-58h8l25 52 31-17z" fill="#d89670"/><path d="m42 52s10-2 10-14-5-15-5-15l-17 3s-6 5-6 12 5 14 5 14z" fill="#8f6f61"/><circle cx="49" cy="13" fill="#77594b" r="6"/><circle cx="48" cy="14" fill="#b47855" r="3"/><circle cx="27" cy="13" fill="#77594b" r="6"/><circle cx="28" cy="14" fill="#b47855" r="3"/><path d="m40.03192 31.871c-2.18011.88577-9.81323 2.129-13.03192 2.129a16.122 16.122 0 0 1 -2.57385-.19757 12.76666 12.76666 0 0 0 -.42615 3.19757c0 .40491.02045.80963.052 1.2132a15.57736 15.57736 0 0 0 3.948.7868h11s4 0 4-3a13.42362 13.42362 0 0 0 -.27515-2.7077 1.9856 1.9856 0 0 0 -2.69293-1.4213z" fill="#77594b"/><path d="m42.72488 32.2923a1.98561 1.98561 0 0 0 -2.69288-1.4213c-2.18018.88579-9.81329 2.129-13.032 2.129-5 0-7-2-7-2a1.95869 1.95869 0 0 0 -2.02331-1.9999 2.9272 2.9272 0 0 0 -2.18969 1.14542c-2.64146 3.23633 2.213 4.85448 2.213 4.85448s7 3 10 3h11s4 0 4-3a13.424 13.424 0 0 0 -.27512-2.7077z" fill="#8f6f61"/><path d="m48 24c0-.03821-.00378-.07538-.004-.11353a5.56627 5.56627 0 0 0 -.996-.88647l-17 3a15.8774 15.8774 0 0 0 -1.173 1.14093c1.62124 2.71472 5.39529 3.85907 9.173 3.85907 5 0 10-2 10-7z" fill="#77594b"/><path d="m38 29c-5 0-10-2-10-7 0-7 4-13 10-13s10 6 10 13c0 5-5 7-10 7z" fill="#8f6f61"/><g fill="#4e3c36"><path d="m38 17a1.41333 1.41333 0 0 0 -1.55511 1.25717l-.92652 3.32377a2 2 0 0 0 1.95563 2.41906h1.052a2 2 0 0 0 1.9556-2.41906l-.92652-3.32377a1.41333 1.41333 0 0 0 -1.55508-1.25717z"/><path d="m42 16h2v2h-2z"/><path d="m32 16h2v2h-2z"/></g><path d="m44 39.93164a17.24225 17.24225 0 0 0 -5.55969-.96472c-3.59 0-8.25312 1.30133-10.8263 7.24017a4.442 4.442 0 0 0 -2.08343-.84778c.03942.10269.46942 1.64069.46942 1.64069l2 1c2.18188-6.54565 6.74377-8.03308 10.44031-8.03308a16.03219 16.03219 0 0 1 5.55969 1.03308z" fill="#77594b"/><path d="m44 41s-12-5-16 7c0 0-2-3-5-1 0 0 0 5 3 5h16c7-6 2-11 2-11z" fill="#8f6f61"/></g></svg>