<svg height="512" viewBox="0 0 64 64" width="512" xmlns="http://www.w3.org/2000/svg"><g id="_16-rabbit" data-name="16-rabbit"><path d="m17 24s6-20 20-22c0 0-2 18-20 22z" fill="#dbd6cd"/><path d="m20 28s6-20 20-22c0 0-2 18-20 22z" fill="#f6f0e5"/><path d="m6 27s5-6 12-6 11 5 10 12c0 0 22 4 22 25v2h-15s-17 1-17-13v-8s-12-2-12-12z" fill="#f6f0e5"/><path d="m48 58h10v2a4 4 0 0 1 -4 4h-6z" fill="#dbd6cd"/><path d="m36 60v-12s-4 1-4 6a24.25882 24.25882 0 0 0 .94495 5.97742 20.07308 20.07308 0 0 0 2.05505.02258z" fill="#dbd6cd"/><path d="m50 58v6h-24c0-5 8-4 8-4a14.51532 14.51532 0 0 1 -1-6 7.5 7.5 0 0 1 3-6z" fill="#f6f0e5"/><path d="m27 53-5 11h-7c0-5 4-4 4-4l2-10z" fill="#f6f0e5"/><path d="m14 26h2v2h-2z" fill="#77594b"/></g></svg>