<svg height="512" viewBox="0 0 64 64" width="512" xmlns="http://www.w3.org/2000/svg"><g id="_26-leopard" data-name="26-leopard"><path d="m55 38h-2a2 2 0 0 1 0-4h2a4.00427 4.00427 0 0 0 4-4v-4a4.00427 4.00427 0 0 0 -4-4h-19a2 2 0 0 1 0-4h19a8.00917 8.00917 0 0 1 8 8v4a8.00917 8.00917 0 0 1 -8 8z" fill="#f0dc62"/><path d="m54 40 1 9 4 5v10h-6s0-3 2-4v-4l-9-9a9.35829 9.35829 0 0 1 -1-7z" fill="#f0dc62"/><path d="m24 45-1 19h-7c0-3 3-4 3-4v-10c-4-2-3-8-3-8z" fill="#f0dc62"/><ellipse cx="6" cy="31" fill="#f0dc62" rx="2" ry="3"/><path d="m3 37v-2l4-4h8s3-2 5-2 5 2 5 2 14-2 21-2 12 4 12 11c0 0-4 7-8 7a89.60018 89.60018 0 0 1 -16 2c-7 0-16-2-20-7h-5l-6 3-2-5z" fill="#fcea81"/><path d="m58 40 1 9 4 5v10h-6s0-3 2-4v-4l-9-9a9.35829 9.35829 0 0 1 -1-7z" fill="#fcea81"/><path d="m28 45-1 19h-7c0-3 3-4 3-4v-10c-4-2-3-8-3-8z" fill="#fcea81"/><ellipse cx="9" cy="31" fill="#fcea81" rx="2" ry="3"/><path d="m6 36h2v2h-2z" fill="#4e3c36"/><g fill="#77594b"><path d="m25 48h-1a1 1 0 0 1 0-2h1a1 1 0 0 1 0 2z"/><path d="m55 45h-2a1 1 0 0 1 0-2h2a1 1 0 0 1 0 2z"/><path d="m56 49h-1a1 1 0 0 1 0-2h1a1 1 0 0 1 0 2z"/><path d="m18 35h-2a1 1 0 0 1 0-2h2a1 1 0 0 1 0 2z"/><path d="m45 35h-2a1 1 0 0 1 0-2h2a1 1 0 0 1 0 2z"/><path d="m46 41h-2a1 1 0 0 1 0-2h2a1 1 0 0 1 0 2z"/><path d="m34 44h-2a1 1 0 0 1 0-2h2a1 1 0 0 1 0 2z"/><path d="m26 36h-2a1 1 0 0 1 0-2h2a1 1 0 0 1 0 2z"/><path d="m31 40h-2a1 1 0 0 1 0-2h2a1 1 0 0 1 0 2z"/><path d="m52 37h-2a1 1 0 0 1 0-2h2a1 1 0 0 1 0 2z"/><path d="m40 39h-2a1 1 0 0 1 0-2h2a1 1 0 0 1 0 2z"/><path d="m21 39h-2a1 1 0 0 1 0-2h2a1 1 0 0 1 0 2z"/><path d="m34 35h-2a1 1 0 0 1 0-2h2a1 1 0 0 1 0 2z"/><path d="m40 46h-2a1 1 0 0 1 0-2h2a1 1 0 0 1 0 2z"/></g></g></svg>