<svg height="512" viewBox="0 0 64 64" width="512" xmlns="http://www.w3.org/2000/svg"><g id="_3-fly" data-name="3-fly"><g fill="#525252"><path d="m36 24a1 1 0 0 0 .51-.14l10-6a1 1 0 0 0 .49-1l-.94-9.31 3.39-1.65a1 1 0 0 0 .44-1.35 1 1 0 0 0 -1.34-.44l-4 2a1 1 0 0 0 -.55 1l.94 9.37-9.45 5.67a1 1 0 0 0 .51 1.85z"/><path d="m44 60h4a1 1 0 0 0 0-2h-3.52l-3.19-4 4.48-5.37a1 1 0 0 0 -1.54-1.28l-5 6a1 1 0 0 0 0 1.26l4 5a1 1 0 0 0 .77.39z"/><path d="m38 25h10a1 1 0 0 0 .89-.55l3.73-7.45h3.38a1 1 0 0 0 0-2h-4a1 1 0 0 0 -.89.55l-3.73 7.45h-9.38a1 1 0 0 0 0 2z"/><path d="m28 24a1 1 0 0 1 -.51-.14l-10-6a1 1 0 0 1 -.49-1l.94-9.31-3.39-1.65a1 1 0 0 1 -.44-1.35 1 1 0 0 1 1.34-.44l4 2a1 1 0 0 1 .55 1l-.94 9.37 9.45 5.67a1 1 0 0 1 -.51 1.85z"/><path d="m20 60h-4a1 1 0 0 1 0-2h3.52l3.19-4-4.48-5.37a1 1 0 1 1 1.54-1.28l5 6a1 1 0 0 1 0 1.26l-4 5a1 1 0 0 1 -.77.39z"/><path d="m26 25h-10a1 1 0 0 1 -.89-.55l-3.73-7.45h-3.38a1 1 0 0 1 0-2h4a1 1 0 0 1 .89.55l3.73 7.45h9.38a1 1 0 0 1 0 2z"/><path d="m32 13a1 1 0 0 1 -1-1c0-1-1.92-3.51-3.71-5.29a1 1 0 0 1 1.42-1.42 25.08 25.08 0 0 1 3.29 4 25.08 25.08 0 0 1 3.29-4 1 1 0 1 1 1.42 1.42c-1.79 1.78-3.71 4.29-3.71 5.29a1 1 0 0 1 -1 1z"/></g><path d="m40 16a6.19 6.19 0 0 1 -2 4l3 27a11.08 11.08 0 0 1 -9 5 11.08 11.08 0 0 1 -9-5l3-27a6.19 6.19 0 0 1 -2-4s3-6 8-6 8 6 8 6z" fill="#695149"/><path d="m32 10s10-1 10 4-10 3-10-4z" fill="#f7716a"/><path d="m32 10s-10-1-10 4 10 3 10-4z" fill="#f7716a"/><path d="m41 47-1.31-11.79a64.74 64.74 0 0 1 -7.69.79 64.74 64.74 0 0 1 -7.69-.79l-1.31 11.79a11.08 11.08 0 0 0 9 5 11.08 11.08 0 0 0 9-5z" fill="#4e3c36"/><path d="m41 47-.39-3.51a29.65 29.65 0 0 1 -8.61 1.51 29.65 29.65 0 0 1 -8.61-1.51l-.39 3.51a11.08 11.08 0 0 0 9 5 11.08 11.08 0 0 0 9-5z" fill="#d15850"/><path d="m26 20s-26 24-26 31c0 4 5 5 8 5 6 0 15-6 18-15s0-21 0-21z" fill="#f6f0e5"/><path d="m22.93 22.9-2.05 2c-.05 2.47-.08 5.83 0 9.38l-5.07 1.45c0-2 0-4 .08-5.87l-2.03 2.14c-.06 3.88-.07 9.3.25 14.13l-6 .75c.41-3.93.67-7.64.79-9.52-.75.85-1.48 1.69-2.18 2.53a149.59 149.59 0 0 1 -1.86 15.8 14.21 14.21 0 0 0 2 .29c.41-2 .77-4.53 1.06-7.06l6.35-.79a38.5 38.5 0 0 0 .86 5.76c.59-.33 1.18-.69 1.77-1.09a92 92 0 0 1 -1.05-15l5.15-1.47a66.44 66.44 0 0 0 1.28 11.44 22.2 22.2 0 0 0 1.58-2.22c-1.23-7.03-1.05-18.26-.93-22.65z" fill="#ccc7be"/><path d="m38 20s26 24 26 31c0 4-5 5-8 5-6 0-15-6-18-15s0-21 0-21z" fill="#f6f0e5"/><path d="m41.07 22.9 2 2c.05 2.47.08 5.83 0 9.38l5.07 1.45c0-2 0-4-.08-5.87l2 2.12c.06 3.88.07 9.3-.25 14.13l6 .75c-.41-3.93-.67-7.64-.79-9.52.75.85 1.48 1.69 2.18 2.53a149.59 149.59 0 0 0 1.86 15.8 14.21 14.21 0 0 1 -2 .29c-.41-2-.77-4.53-1.06-7.06l-6.35-.79a38.5 38.5 0 0 1 -.86 5.76c-.59-.33-1.18-.69-1.77-1.09a92 92 0 0 0 1-15l-5.02-1.45a66.44 66.44 0 0 1 -1.28 11.44 22.2 22.2 0 0 1 -1.58-2.22c1.23-7.03 1.05-18.26.93-22.65z" fill="#ccc7be"/></g></svg>