<svg height="512" viewBox="0 0 64 64" width="512" xmlns="http://www.w3.org/2000/svg"><g id="_8-bear" data-name="8-bear"><path d="m14 23s0-6 3-6 3 6 3 6z" fill="#77594b"/><path d="m56 50a8.75992 8.75992 0 0 1 2 6c0 4-3 8-3 8h-10s0-4 4-4a10.79892 10.79892 0 0 0 -4-8 6.99733 6.99733 0 0 1 -3-7z" fill="#77594b"/><path d="m34 46a17.762 17.762 0 0 1 -1 18h-9c0-3 4-4 4-4 2-8-5-15-5-15z" fill="#77594b"/><g fill="#8f6f61"><path d="m1 29 7-1 1.45838-2.91676a4 4 0 0 1 1.59315-1.68412l4.39567-2.5118a4 4 0 0 1 3.24946-.32177l4.30334 1.43445s7-6 13-6 27 5 27 21c0 10-2 13-2 13a72.972 72.972 0 0 1 -15 2c-4.89308 0-9.86663-1.25831-13-4 0 0-7 5-14-7l-10-5h-2.36242a4 4 0 0 1 -3.67658-2.42432z"/><path d="m38 46a17.762 17.762 0 0 1 -1 18h-9c0-3 4-4 4-4 2-8-5-15-5-15z"/><path d="m17 23s0-6 3-6 3 6 3 6z"/><path d="m61 50a8.75992 8.75992 0 0 1 2 6c0 4-3 8-3 8h-10s0-4 4-4a10.79892 10.79892 0 0 0 -4-8 6.99733 6.99733 0 0 1 -3-7z"/></g><path d="m8 28-7 1 1.961 4.57568a4 4 0 0 0 3.67657 2.42432h2.36243c2-5-1-8-1-8z" fill="#d89670"/><path d="m12 27h2v2h-2z" fill="#4e3c36"/></g></svg>