<svg height="512" viewBox="0 0 64 64" width="512" xmlns="http://www.w3.org/2000/svg"><g id="_20-moth" data-name="20-moth"><path d="m36 37s4 18 10 18 4-5 9-11 0-14 0-14l-21-3-2 6z" fill="#c98353"/><path d="m48 29 7 1s5 8 0 14-3 11-9 11c-2.41 0-4.5-2.91-6.13-6.38 1.13-2.89 3.13-7.62 5.13-9.62 2.35-2.35 2.86-7.78 3-10z" fill="#d15850"/><path d="m34 27s23 7 26 2a8.22 8.22 0 0 0 0-9s3-3 3-6a4.94 4.94 0 0 0 -5-5c-8 0-24 16-24 16z" fill="#d15850"/><path d="m54 19c0-2.49-2.72-5-4.76-6.51 3.21-2.03 6.35-3.49 8.76-3.49a4.94 4.94 0 0 1 5 5c0 3-3 6-3 6a8.22 8.22 0 0 1 0 9c-1.06 1.77-4.64 2-8.81 1.64-.9-4.74 2.81-8.19 2.81-11.64z" fill="#c98353"/><path d="m43 26a.94.94 0 0 0 .55-.17l6-4a1 1 0 1 0 -1.1-1.66l-6 4a1 1 0 0 0 .55 1.83z" fill="#f7716a"/><path d="m43 36a1 1 0 0 0 .55-1.83l-3-2a1 1 0 1 0 -1.1 1.66l3 2a.94.94 0 0 0 .55.17z" fill="#695149"/><path d="m56 14h2v2h-2z" fill="#695149"/><path d="m55 25h2v2h-2z" fill="#695149"/><g fill="#f7716a"><path d="m51 35h2v2h-2z"/><path d="m45 47h2v2h-2z"/><path d="m49 41h2v2h-2z"/></g><path d="m28 37s-4 18-10 18-4-5-9-11 0-14 0-14l21-3 2 6z" fill="#c98353"/><path d="m16 29-7 1s-5 8 0 14 3 11 9 11c2.41 0 4.5-2.91 6.13-6.38-1.13-2.89-3.13-7.62-5.13-9.62-2.35-2.35-2.86-7.78-3-10z" fill="#d15850"/><path d="m30 27s-23 7-26 2a8.22 8.22 0 0 1 0-9s-3-3-3-6a4.94 4.94 0 0 1 5-5c8 0 24 16 24 16z" fill="#d15850"/><path d="m10 19c0-2.49 2.72-5 4.76-6.51-3.21-2.03-6.35-3.49-8.76-3.49a4.94 4.94 0 0 0 -5 5c0 3 3 6 3 6a8.22 8.22 0 0 0 0 9c1.06 1.77 4.64 2 8.81 1.64.9-4.74-2.81-8.19-2.81-11.64z" fill="#c98353"/><path d="m21 26a.94.94 0 0 1 -.55-.17l-6-4a1 1 0 0 1 1.1-1.66l6 4a1 1 0 0 1 -.55 1.83z" fill="#f7716a"/><path d="m21 36a1 1 0 0 1 -.55-1.83l3-2a1 1 0 0 1 1.1 1.66l-3 2a.94.94 0 0 1 -.55.17z" fill="#695149"/><path d="m6 14h2v2h-2z" fill="#695149"/><path d="m7 25h2v2h-2z" fill="#695149"/><path d="m11 35h2v2h-2z" fill="#f7716a"/><path d="m17 47h2v2h-2z" fill="#f7716a"/><path d="m13 41h2v2h-2z" fill="#f7716a"/><path d="m33 24.73a29.09 29.09 0 0 0 -3-6.57l.85-1.71a1 1 0 1 0 -1.78-.9l-.38.75a12.08 12.08 0 0 0 -2.13-2.1 1 1 0 0 0 -1.2 1.6 9.73 9.73 0 0 1 1.34 1.2h-.7a1 1 0 0 0 0 2h2.2a27.86 27.86 0 0 1 2.8 6.28 1 1 0 0 0 1 .72.84.84 0 0 0 .27 0 1 1 0 0 0 .73-1.27z" fill="#404040"/><path d="m31 24.73a29.09 29.09 0 0 1 3-6.57l-.85-1.71a1 1 0 1 1 1.78-.9l.38.75a12.08 12.08 0 0 1 2.13-2.1 1 1 0 1 1 1.2 1.6 9.73 9.73 0 0 0 -1.34 1.2h.7a1 1 0 0 1 0 2h-2.2a27.86 27.86 0 0 0 -2.8 6.28 1 1 0 0 1 -1 .72.84.84 0 0 1 -.27 0 1 1 0 0 1 -.73-1.27z" fill="#404040"/><path d="m34 30a10.34 10.34 0 0 0 1-4c0-2-3-3-3-3s-3 1-3 3a10.34 10.34 0 0 0 1 4z" fill="#d3aa4a"/><path d="m32 42c2 0 4-2 4-5 0-6-2-7-2-7h-4s-2 1-2 7c0 3 2 5 4 5z" fill="#695149"/><path d="m36 37.35c0-.12 0-.23 0-.35 0-.63 0-1.2-.07-1.72a16.45 16.45 0 0 1 -3.93.72 16.45 16.45 0 0 1 -3.93-.72c-.07.52-.07 1.09-.07 1.72v.35a17.34 17.34 0 0 0 4 .65 17.34 17.34 0 0 0 4-.65z" fill="#57413a"/><path d="m32 32a13.53 13.53 0 0 1 -3.11-.5 8 8 0 0 0 -.58 1.92 16.06 16.06 0 0 0 3.69.58 16.06 16.06 0 0 0 3.69-.58 8 8 0 0 0 -.58-1.92 13.53 13.53 0 0 1 -3.11.5z" fill="#57413a"/></g></svg>