<svg height="512" viewBox="0 0 64 64" width="512" xmlns="http://www.w3.org/2000/svg"><g id="_19-fox" data-name="19-fox"><g fill="#c48865"><path d="m49 49 3 8-2 7h-4l2-7-3-5a9.72473 9.72473 0 0 1 -6-6 10.82011 10.82011 0 0 1 3-7z"/><path d="m20 44v12l-2 8h4l2-8v-12z"/><path d="m55 42s-7-5-3-13-6-17-6-17 17 3 17 18c0 11-8 12-8 12z"/></g><path d="m56 24 3 1 2-3h.02832c-4.47491-8.13171-15.02832-10-15.02832-10s7.67487 6.90839 6.88647 14h.11353z" fill="#f6f0e5"/><path d="m53 49s3-1 3-8c0-13-29-9-33-9s-7-8-11-8l-6 2-1 3-4 3s1 5 10 3c0 0 3 13 12 14h4c7 1 16-3 16-3z" fill="#d89670"/><path d="m53 49 3 8-2 7h-4l2-7-3-5a9.72473 9.72473 0 0 1 -6-6 10.82011 10.82011 0 0 1 3-7z" fill="#d89670"/><path d="m10 25a10.3906 10.3906 0 0 0 -7-5l3 6z" fill="#c48865"/><path d="m13 25a10.3906 10.3906 0 0 0 -7-5l3 6z" fill="#d89670"/><path d="m11 35s3 13 12 14h3.92l-10.51891-13.84066a8 8 0 0 0 -6.3693-3.15934h-9.03179s1 5 10 3z" fill="#f6f0e5"/><path d="m23 42v14l-2 8h4l2-8v-14z" fill="#d89670"/><path d="m8 28h2v2h-2z" fill="#8f6f61"/></g></svg>