<svg height="512" viewBox="0 0 64 64" width="512" xmlns="http://www.w3.org/2000/svg"><g id="_5-rhino" data-name="5-rhino"><path d="m53 35c0 11-2 17-2 17l1 7-1 5h-8s0-3 2-4l-1-8a7.5 7.5 0 0 1 -3-6c0-4 2-11 2-11z" fill="#95a7b1"/><path d="m35 43a55.27268 55.27268 0 0 1 1 9c0 3-2 7-2 7v5h-9c0-2 3-4 3-4s1-2-2-9c-.96667-2.25557-.83742-5.13415-1-8z" fill="#95a7b1"/><path d="m2 45-1-10 6 6z" fill="#f6f0e5"/><path d="m62 51h-2v-15.58594l-5.707-5.707 1.414-1.41406 6 6a1.00012 1.00012 0 0 1 .293.707z" fill="#cad6dd"/><g fill="#bdccd4"><path d="m58 35c0-17-9-11-11-11s-4-3-7-3-3 3-8 3c-7 0-10-4-14-4s-7 7-7 7c-2 8-9 18-9 18s0 6 6 6l8-7s7 7 21 7 21-16 21-16z"/><path d="m58 35c0 11-2 17-2 17l1 7-1 5h-8s0-3 2-4l-1-8a7.5 7.5 0 0 1 -3-6c0-4 2-12 2-12z"/><path d="m31 43a55.27268 55.27268 0 0 1 1 9c0 3-2 7-2 7v5h-9c0-2 3-4 3-4s1-2-2-9-1-20-1-20z"/></g><path d="m8 23a6 6 0 0 1 6 6v4a0 0 0 0 1 0 0 6 6 0 0 1 -6-6v-4a0 0 0 0 1 0 0z" fill="#95a7b1"/><path d="m63 52c0 1.10457-2 3-2 3s-2-1.89543-2-3 2-3 2-3 2 1.89543 2 3z" fill="#95a7b1"/><path d="m28 51-5.49683 1.2215c2.37769 6.01306 1.49683 7.7785 1.49683 7.7785s-3 2-3 4h9v-5a20.567 20.567 0 0 0 1.98712-6.671z" fill="#cad6dd"/><path d="m53 51-3.989 1.08789.989 7.91211c-2 1-2 4-2 4h8l1-5-1-7z" fill="#cad6dd"/><path d="m10 36h2v2h-2z" fill="#77594b"/><path d="m23.707 45.707a.99989.99989 0 0 0 -1.414-1.414l-2.44971 2.44971c.55683.319 1.181.64367 1.85907.96905z" fill="#95a7b1"/><path d="m18.91406 42.40625a1.00027 1.00027 0 0 0 -1.82812-.8125l-1.07434 2.41736a15.53263 15.53263 0 0 0 1.60955 1.30414z" fill="#95a7b1"/></g></svg>