<svg height="512" viewBox="0 0 64 64" width="512" xmlns="http://www.w3.org/2000/svg"><g id="_19-scorpion" data-name="19-scorpion"><path d="m33 28h.2l9.8-2 7.84 1a1 1 0 0 0 .24-2l-8-1a1.16 1.16 0 0 0 -.32 0l-10 2a1 1 0 0 0 .2 2z" fill="#bd4f48"/><path d="m49 34a1 1 0 0 0 .55-1.83l-6-4a1 1 0 0 0 -.55-.17h-9a1 1 0 0 0 0 2h8.7l5.75 3.83a.94.94 0 0 0 .55.17z" fill="#bd4f48"/><path d="m43 45a1 1 0 0 0 .24 0 1 1 0 0 0 .76-1.24l-2-8a1 1 0 0 0 -.26-.47l-7-7a1 1 0 0 0 -1.42 1.42l6.81 6.8 1.87 7.73a1 1 0 0 0 1 .76z" fill="#bd4f48"/><path d="m34.27 25 7-2a1 1 0 0 0 .6-.46l4-7-1.74-1-3.8 6.65-6.6 1.81z" fill="#bd4f48"/><path d="m43 11-1 3v3l3 1 3-3v-3l-2-3z" fill="#e36861"/><path d="m38 6-2-4 6 2-2-4s7 0 7 6a7.65 7.65 0 0 1 -2 5h-4a2.94 2.94 0 0 1 -3-3z" fill="#bd4f48"/><path d="m31.88 61 1.12 2 4 1 3-1v-4l-3-1h-5z" fill="#d15850"/><path d="m27 28h-.2l-9.8-2-7.88 1a1 1 0 1 1 -.24-2l8-1a1.16 1.16 0 0 1 .32 0l10 2a1 1 0 0 1 -.2 2z" fill="#bd4f48"/><path d="m11 34a1 1 0 0 1 -.55-1.83l6-4a1 1 0 0 1 .55-.17h9a1 1 0 0 1 0 2h-8.7l-5.75 3.83a.94.94 0 0 1 -.55.17z" fill="#bd4f48"/><path d="m17 45a1 1 0 0 1 -.24 0 1 1 0 0 1 -.76-1.24l2-8a1 1 0 0 1 .26-.47l7-7a1 1 0 0 1 1.42 1.42l-6.81 6.8-1.87 7.73a1 1 0 0 1 -1 .76z" fill="#bd4f48"/><path d="m25.73 25-7-2a1 1 0 0 1 -.6-.46l-4-7 1.74-1 3.8 6.65 6.6 1.81z" fill="#bd4f48"/><path d="m17 11 1 3v3l-3 1-3-3v-3l2-3z" fill="#e36861"/><path d="m32 47 4-4 1-5a53.84 53.84 0 0 1 -1-8 53.84 53.84 0 0 1 1-8l-5-4-2 2-2-2-5 4a53.84 53.84 0 0 1 1 8 53.84 53.84 0 0 1 -1 8l1 5 4 4z" fill="#f7716a"/><path d="m32 47 1 4-1 3h-4l-1-3 1-4z" fill="#d15850"/><path d="m32 54 1 4-1 3h-4l-1-3 1-4z" fill="#f7716a"/><path d="m44 63 4 1 3-1v-4l-3-1-4 1z" fill="#d15850"/><path d="m40 63 3 1 3-1v-4l-3-1-3 1z" fill="#f7716a"/><path d="m54 57 1 4-1 3h-4l-1-3 1-4z" fill="#f7716a"/><g fill="#d15850"><path d="m53 58c-4 0-5-3-5-5s3-7 3-7l2 6a3 3 0 0 1 0 6z"/><path d="m30 41a42.52 42.52 0 0 0 -6.27.67l.27 1.33.56.56a39.84 39.84 0 0 1 5.44-.56 39.84 39.84 0 0 1 5.44.56l.56-.56.27-1.33a42.52 42.52 0 0 0 -6.27-.67z"/><path d="m23.26 36.6c-.15.84-.26 1.4-.26 1.4l.13.64a47.88 47.88 0 0 1 6.87-.64 47.88 47.88 0 0 1 6.87.64l.13-.64s-.11-.56-.26-1.4a47.56 47.56 0 0 0 -6.74-.6 47.56 47.56 0 0 0 -6.74.6z"/><path d="m30 32a44.09 44.09 0 0 1 6.18.68c-.08-.68-.18-1.41-.18-2.05a41.36 41.36 0 0 0 -6-.63 41.36 41.36 0 0 0 -6 .63c0 .64-.09 1.34-.17 2.05a44.09 44.09 0 0 1 6.17-.68z"/><path d="m29 23h2v2h-2z"/><path d="m28 28a1 1 0 0 1 -.71-.29l-2-2a1 1 0 0 1 1.42-1.42l2 2a1 1 0 0 1 0 1.42 1 1 0 0 1 -.71.29z"/><path d="m32 28a1 1 0 0 1 -.71-.29 1 1 0 0 1 0-1.42l2-2a1 1 0 0 1 1.42 1.42l-2 2a1 1 0 0 1 -.71.29z"/></g><path d="m22 6 2-4-6 2 2-4s-7 0-7 6a7.65 7.65 0 0 0 2 5h4a2.94 2.94 0 0 0 3-3z" fill="#bd4f48"/></g></svg>