<svg height="512" viewBox="0 0 64 64" width="512" xmlns="http://www.w3.org/2000/svg"><g id="_20-snake" data-name="20-snake"><path d="m2.99989 21a1.00061 1.00061 0 0 1 -.894-.55273l-1-2a1.00012 1.00012 0 0 1 1.78906-.89454l.65088 1.30176 8.23779-1.831a1.00033 1.00033 0 0 1 .43359 1.95312l-9 2a1.02734 1.02734 0 0 1 -.21732.02339z" fill="#e36861"/><path d="m36 54h-28a5 5 0 0 1 0-10h28a5 5 0 0 1 0 10z" fill="#85b181"/><path d="m29 44v-24a8 8 0 0 0 -8-8h-8a6 6 0 0 0 -6 6v2a2 2 0 0 0 2 2h7c2.20914 0 5 1.79086 5 4l-2 18z" fill="#95c590"/><path d="m55 46v10a8 8 0 0 1 -8 8h-39a5 5 0 0 1 0-10h35a2 2 0 0 0 2-2v-11.2461a6.75389 6.75389 0 0 1 6.7539-6.7539 6.75388 6.75388 0 0 1 5.2739 2.53477l5.9722 7.46523h-6a2 2 0 0 0 -2 2z" fill="#95c590"/><path d="m14 15h2v2h-2z" fill="#77594b"/><g fill="#899c69"><path d="m21.74512 61a.99957.99957 0 0 1 -.42578-.0957l-3.82276-1.79883-3.82226 1.79883a.99965.99965 0 0 1 -.85157 0l-4.24853-2a.99952.99952 0 1 1 .85156-1.8086l3.82276 1.79883 3.82226-1.79883a.99963.99963 0 0 1 .85156 0l3.82276 1.79883 3.8208-1.79883a1.00072 1.00072 0 0 1 .85205 0l3.82178 1.79883 3.82568-1.7998a.99846.99846 0 0 1 .85107 0l3.82911 1.7998 3.8291-1.7998a1.00019 1.00019 0 0 1 .85058 1.81054l-4.25439 2a.99739.99739 0 0 1 -.85059 0l-3.8291-1.7998-3.82568 1.7998a.99962.99962 0 0 1 -.85157-.001l-3.82177-1.79883-3.8208 1.79883a1.00342 1.00342 0 0 1 -.42627.09573z"/><path d="m34.74512 51a.99716.99716 0 0 1 -.42481-.09473l-3.8291-1.7998-3.82568 1.7998a.99962.99962 0 0 1 -.85157-.001l-3.82177-1.79883-3.8208 1.79883a1.00072 1.00072 0 0 1 -.852 0l-3.82276-1.79883-3.82231 1.79886a.99953.99953 0 1 1 -.85157-1.8086l4.24805-2a.99963.99963 0 0 1 .85156 0l3.82276 1.79883 3.8208-1.79883a1.00072 1.00072 0 0 1 .85205 0l3.82178 1.79883 3.82568-1.7998a.99846.99846 0 0 1 .85107 0l4.2544 2a1.00013 1.00013 0 0 1 -.42578 1.90527z"/><path d="m51.001 54a.99993.99993 0 0 1 -.8335-.44531l-2-3.00293a1.00109 1.00109 0 0 1 .00049-1.10938l1.63037-2.44726-1.63036-2.44336a.99927.99927 0 0 1 0-1.10938l2-2.99707a1 1 0 1 1 1.664 1.10938l-1.62988 2.44238 1.62988 2.44336a.99926.99926 0 0 1 0 1.10937l-1.63037 2.44727 1.63086 2.44824a1.00064 1.00064 0 0 1 -.83149 1.55469z"/><path d="m23.999 41a1.00064 1.00064 0 0 1 -.83154-1.55469l1.63086-2.44824-1.63032-2.44727a.99926.99926 0 0 1 0-1.10937l1.62988-2.44336-1.62988-2.44238a1 1 0 1 1 1.664-1.10938l2 2.99707a.99927.99927 0 0 1 0 1.10938l-1.63037 2.44336 1.63037 2.44726a1.00109 1.00109 0 0 1 .00049 1.10938l-2 3.00293a.99993.99993 0 0 1 -.83349.44531z"/></g></g></svg>