<svg height="512" viewBox="0 0 64 64" width="512" xmlns="http://www.w3.org/2000/svg"><g id="_25-bull" data-name="25-bull"><path d="m51.18164 31.9834-.36328-1.9668 9.32864-1.72168a1.00064 1.00064 0 0 0 .853-.98926v-4.30566a2.00229 2.00229 0 0 0 -2-2h-7v-2h7a4.00427 4.00427 0 0 1 4 4v4.30566a2.98926 2.98926 0 0 1 -2.50732 2.959z" fill="#77594b"/><g fill="#4e3c36"><path d="m51 22c-1.10457 0-4-2-4-2s2.89543-2 4-2a7.3021 7.3021 0 0 1 2.65022 1.13885 1.00114 1.00114 0 0 1 0 1.7223 7.3021 7.3021 0 0 1 -2.65022 1.13885z"/><path d="m34 39-10 25h-7s1-4 4-4l7-20z"/><path d="m43 42 6 11-1 7a4.373 4.373 0 0 0 -3 4h6l3-11-5-13z"/></g><path d="m8 42h-7s1-4 7-4z" fill="#dbd6cd"/><path d="m6 41 4 5h2l4 4s2 0 2-4-1-5-1-5 8 7 13 7 29-7 29-7l-2-11s-1-3-15-3c-8 0-13-6-23-6s-13 20-13 20z" fill="#77594b"/><path d="m6 41s-1 6-5 9c0 0 7-1 9-4z" fill="#f6f0e5"/><path d="m59 41v3l4 3v14l-1 3h-7a4.373 4.373 0 0 1 3-4v-10s-11-2-11-9 3-9 3-9z" fill="#77594b"/><path d="m17 41 18 19c-3 0-3 4-3 4h8v-3l-16-25z" fill="#77594b"/><path d="m12 42h2v2h-2z" fill="#4e3c36"/></g></svg>