<svg height="512" viewBox="0 0 64 64" width="512" xmlns="http://www.w3.org/2000/svg"><g id="_6-squirrel" data-name="6-squirrel"><path d="m28 64h-22l1.8-2.4a4 4 0 0 1 3.2-1.6h4s-3.48453-3.48453-2.94278-10.4536a6.02587 6.02587 0 0 1 5.95878-5.5464c2.98756.00356 3.984 1 3.984 1z" fill="#c48865"/><path d="m34 64v-9s4-13-1-19-8-8-8-15 6-15 16-15c14 0 22 19 22 19a8.613 8.613 0 0 1 -8 5c-6 0-11-5-11-5s1.46447 7.46447 5 11c4 4 10 3 10 16a20.614 20.614 0 0 1 -.42315 4.27293 9.8992 9.8992 0 0 1 -9.73845 7.72707z" fill="#b47855"/><path d="m42 36c-5-6-8-8-8-15a15.42438 15.42438 0 0 1 11.36133-14.35986 15.49952 15.49952 0 0 0 -4.36133-.64014c-10 0-16 8-16 15s3 9 8 15 1 19 1 19v9h9v-9s4-13-1-19z" fill="#d89670"/><path d="m14 12a0 0 0 0 1 0 0v8a0 0 0 0 1 0 0h-6a0 0 0 0 1 0 0v-2a6 6 0 0 1 6-6z" fill="#c48865"/><path d="m41 56c0-4.49481-2.49438-8.24121-5.48975-11.48865a38.81255 38.81255 0 0 1 -1.51025 10.48865v8.5119c.6521.171 1.30817.33985 2 .4881a8.613 8.613 0 0 0 5-8z" fill="#c48865"/><path d="m34 64a8.613 8.613 0 0 0 5-8c0-9-10-15-14-20s-7-19-7-19h-8s-9 6-9 11c0 3.83014 5.2812 6.48669 10 4.82309 0 0-5 25.17691 23 31.17691z" fill="#d89670"/><path d="m20.86792 42.40924c1.73596-1.33533 2.44617-3.6571 1.13208-5.40924h-7v4l-3.5708 3.06067a26.46 26.46 0 0 0 1.288 4.04144z" fill="#c48865"/><g fill="#d89670"><path d="m20 35 .62909.83879a4 4 0 0 1 -.76116 5.57049l-10.86793 7.59072-2-3 7-6v-5z"/><path d="m34 64h-22l1.8-2.4a4 4 0 0 1 3.2-1.6h4s-3.48453-3.48453-2.94278-10.4536a6.02587 6.02587 0 0 1 5.95878-5.5464c2.98756.00356 3.984 1 3.984 1z"/><path d="m18 12a0 0 0 0 1 0 0v8a0 0 0 0 1 0 0h-6a0 0 0 0 1 0 0v-2a6 6 0 0 1 6-6z"/></g><path d="m8 24h2v2h-2z" fill="#8f6f61"/></g></svg>